<svg xmlns="http://www.w3.org/2000/svg" width="18.009" height="20.581" viewBox="0 0 18.009 20.581"><defs><style>.a{fill:#9f9daa;}</style></defs><path class="a" d="M16.274,8.5,14.969,7.2,8.44,13.723a2.769,2.769,0,1,0,3.917,3.916l7.834-7.833A4.615,4.615,0,0,0,13.663,3.28L5.438,11.5l-.018.017a6.437,6.437,0,0,0,9.1,9.1l.016-.018h0l5.614-5.613-1.306-1.3L13.236,19.3l-.017.017a4.591,4.591,0,1,1-6.493-6.492l.018-.017h0l8.226-8.224A2.769,2.769,0,0,1,18.886,8.5l-7.834,7.833a.923.923,0,0,1-1.306-1.3L16.274,8.5Z" transform="translate(-3.535 -1.928)"/></svg>