<svg xmlns="http://www.w3.org/2000/svg" width="228.549" height="202.012" viewBox="0 0 228.549 202.012"><defs><style>.a{fill:#dfdfdf;}.b{fill:#e5e5e5;}.c{fill:#eaeaea;}.d{fill:#feba3d;}.e{fill:#253237;}.f{fill:#0457be;}.g{fill:#ff7063;}.h{fill:#445a63;}.i{fill:#b3d88a;}.j{fill:#2aad9c;}.k{fill:#0d0a2b;}.l{opacity:0.8;isolation:isolate;}.m{fill:#76b0e5;}</style></defs><g transform="translate(-231.682 -297.085)"><g transform="translate(231.682 303.026)"><path class="a" d="M384.943,387.033a3.612,3.612,0,0,1,1.409-.144,5.6,5.6,0,0,1,1.365.111l-.033.033c0-.028,0-.044.033-.044s0,0,.039.044h0a5.322,5.322,0,0,1-1.365.111A3.493,3.493,0,0,1,384.943,387.033Z" transform="translate(-321.779 -355.809)"/><path class="a" d="M371.483,387.056a6.734,6.734,0,0,1,2.774,0A6.75,6.75,0,0,1,371.483,387.056Z" transform="translate(-313.866 -355.832)"/><path class="a" d="M358.024,387.056a6.734,6.734,0,0,1,2.774,0A6.75,6.75,0,0,1,358.024,387.056Z" transform="translate(-305.954 -355.832)"/><path class="a" d="M344.565,387.056a6.732,6.732,0,0,1,2.773,0,6.738,6.738,0,0,1-2.773,0Z" transform="translate(-298.042 -355.832)"/><path class="a" d="M331.106,387.033a6.736,6.736,0,0,1,2.773,0,6.736,6.736,0,0,1-2.773,0Z" transform="translate(-290.13 -355.809)"/><path class="a" d="M317.646,387.033a6.739,6.739,0,0,1,2.774,0,6.739,6.739,0,0,1-2.774,0Z" transform="translate(-282.217 -355.809)"/><path class="a" d="M308.206,383.049a3.5,3.5,0,0,1,.144,1.387v.355l-.139-.139c.594,0,1.026.072,1.026.139s-.433.122-1.026.139a.127.127,0,0,1-.138-.116.1.1,0,0,1,0-.012h0v-.355A3.381,3.381,0,0,1,308.206,383.049Z" transform="translate(-276.576 -353.561)"/><path class="a" d="M308.2,369.59a6.74,6.74,0,0,1,0,2.774,6.737,6.737,0,0,1,0-2.774Z" transform="translate(-276.566 -345.649)"/><path class="a" d="M308.2,356.131a6.738,6.738,0,0,1,0,2.773,6.735,6.735,0,0,1,0-2.773Z" transform="translate(-276.566 -337.737)"/><path class="a" d="M308.2,342.671a6.74,6.74,0,0,1,0,2.774,6.737,6.737,0,0,1,0-2.774Z" transform="translate(-276.566 -329.824)"/><path class="a" d="M308.2,329.212a6.74,6.74,0,0,1,0,2.774,6.737,6.737,0,0,1,0-2.774Z" transform="translate(-276.566 -321.912)"/><path class="a" d="M308.2,315.753a6.738,6.738,0,0,1,0,2.773,6.735,6.735,0,0,1,0-2.773Z" transform="translate(-276.566 -314)"/><path class="a" d="M317.876,315.47a6.738,6.738,0,0,1-2.774,0,6.74,6.74,0,0,1,2.774,0Z" transform="translate(-280.722 -313.739)"/><path class="a" d="M331.335,315.47a6.737,6.737,0,0,1-2.773,0,6.738,6.738,0,0,1,2.773,0Z" transform="translate(-288.634 -313.739)"/><path class="a" d="M344.795,315.493a6.735,6.735,0,0,1-2.774,0A6.734,6.734,0,0,1,344.795,315.493Z" transform="translate(-296.546 -313.763)"/><path class="a" d="M358.254,315.493a6.735,6.735,0,0,1-2.774,0A6.734,6.734,0,0,1,358.254,315.493Z" transform="translate(-304.459 -313.763)"/><path class="a" d="M371.713,315.493a6.733,6.733,0,0,1-2.773,0A6.732,6.732,0,0,1,371.713,315.493Z" transform="translate(-312.371 -313.763)"/><path class="a" d="M385.172,315.493a6.733,6.733,0,0,1-2.773,0A6.732,6.732,0,0,1,385.172,315.493Z" transform="translate(-320.283 -313.763)"/><path class="a" d="M391.443,322.645a6.74,6.74,0,0,1,0-2.774,6.74,6.74,0,0,1,0,2.774Z" transform="translate(-325.505 -316.421)"/><path class="a" d="M391.443,336.1a6.738,6.738,0,0,1,0-2.773,6.738,6.738,0,0,1,0,2.773Z" transform="translate(-325.505 -324.334)"/><path class="a" d="M391.443,349.564a6.74,6.74,0,0,1,0-2.774,6.74,6.74,0,0,1,0,2.774Z" transform="translate(-325.505 -332.246)"/><path class="a" d="M391.443,363.023a6.74,6.74,0,0,1,0-2.774,6.74,6.74,0,0,1,0,2.774Z" transform="translate(-325.505 -340.158)"/><path class="a" d="M391.443,376.482a6.74,6.74,0,0,1,0-2.774,6.74,6.74,0,0,1,0,2.774Z" transform="translate(-325.505 -348.07)"/><path class="a" d="M390.94,314.989h-3.467V311.5h3.467Zm-2.912-.555h2.357v-2.38h-2.357Z" transform="translate(-323.266 -311.5)"/><path class="a" d="M307.689,314.989h-3.462V311.5h3.462Zm-2.907-.555h2.352v-2.38h-2.352Z" transform="translate(-274.329 -311.5)"/><path class="a" d="M307.689,387.17h-3.462v-3.461h3.462Zm-2.907-.555h2.352v-2.352h-2.352Z" transform="translate(-274.329 -353.949)"/><path class="a" d="M390.84,387.17h-3.461v-3.461h3.461Zm-2.906-.555h2.352v-2.352h-2.352Z" transform="translate(-323.211 -353.949)"/><path class="b" d="M757.226,525.844a12.136,12.136,0,0,1,2.618-.144H760l-.144.144a11.094,11.094,0,0,1,.144-2.469,11.127,11.127,0,0,1,.144,2.469.145.145,0,0,1-.144.144h-.155A11.747,11.747,0,0,1,757.226,525.844Z" transform="translate(-540.631 -436.054)"/><path class="b" d="M743.767,529.159a6.731,6.731,0,0,1,2.773,0A6.747,6.747,0,0,1,743.767,529.159Z" transform="translate(-532.719 -439.369)"/><path class="b" d="M730.307,529.159a6.733,6.733,0,0,1,2.774,0A6.75,6.75,0,0,1,730.307,529.159Z" transform="translate(-524.806 -439.369)"/><path class="b" d="M716.848,529.159a6.732,6.732,0,0,1,2.774,0A6.749,6.749,0,0,1,716.848,529.159Z" transform="translate(-516.894 -439.369)"/><path class="b" d="M703.389,529.159a6.733,6.733,0,0,1,2.774,0A6.75,6.75,0,0,1,703.389,529.159Z" transform="translate(-508.982 -439.369)"/><path class="b" d="M689.93,529.159a6.731,6.731,0,0,1,2.773,0A6.748,6.748,0,0,1,689.93,529.159Z" transform="translate(-501.07 -439.369)"/><path class="b" d="M682.476,523.106a3.387,3.387,0,0,1,.144,1.387,7.612,7.612,0,0,1-.072,1.193l-.072-.072c.128,0,.194.05.194.072s-.066.055-.194.072a.055.055,0,0,1-.066-.042v0h0a7.594,7.594,0,0,1-.072-1.193A3.5,3.5,0,0,1,682.476,523.106Z" transform="translate(-496.595 -435.896)"/><path class="b" d="M682.5,509.647a6.735,6.735,0,0,1,0,2.774A6.732,6.732,0,0,1,682.5,509.647Z" transform="translate(-496.615 -427.984)"/><path class="b" d="M682.5,496.188a6.733,6.733,0,0,1,0,2.773A6.731,6.731,0,0,1,682.5,496.188Z" transform="translate(-496.615 -420.072)"/><path class="b" d="M682.5,482.728a6.735,6.735,0,0,1,0,2.774A6.733,6.733,0,0,1,682.5,482.728Z" transform="translate(-496.615 -412.159)"/><path class="b" d="M682.5,469.269a6.735,6.735,0,0,1,0,2.774A6.733,6.733,0,0,1,682.5,469.269Z" transform="translate(-496.615 -404.247)"/><path class="b" d="M684.021,459.309a3.385,3.385,0,0,1-1.387.144h-.155l.144-.144a2.852,2.852,0,0,1-.144,1.237,3.065,3.065,0,0,1-.144-1.237.144.144,0,0,1,.144-.144h.155A3.5,3.5,0,0,1,684.021,459.309Z" transform="translate(-496.598 -398.297)"/><path class="b" d="M695.947,459.333a6.735,6.735,0,0,1-2.774,0A6.75,6.75,0,0,1,695.947,459.333Z" transform="translate(-502.977 -398.321)"/><path class="b" d="M709.406,459.333a6.733,6.733,0,0,1-2.773,0A6.747,6.747,0,0,1,709.406,459.333Z" transform="translate(-510.889 -398.321)"/><path class="b" d="M722.865,459.333a6.733,6.733,0,0,1-2.773,0A6.748,6.748,0,0,1,722.865,459.333Z" transform="translate(-518.801 -398.321)"/><path class="b" d="M736.325,459.333a6.735,6.735,0,0,1-2.774,0A6.75,6.75,0,0,1,736.325,459.333Z" transform="translate(-526.713 -398.321)"/><path class="b" d="M749.784,459.333a6.735,6.735,0,0,1-2.774,0A6.75,6.75,0,0,1,749.784,459.333Z" transform="translate(-534.625 -398.321)"/><path class="b" d="M761.923,460.657a3.294,3.294,0,0,1-.144-1.348l.144.144h-.039a3.383,3.383,0,0,1-1.386-.144,3.5,3.5,0,0,1,1.386-.144h.039a.144.144,0,0,1,.144.144h0A3.418,3.418,0,0,1,761.923,460.657Z" transform="translate(-542.554 -398.297)"/><path class="b" d="M763.75,472.312a6.735,6.735,0,0,1,0-2.774A6.745,6.745,0,0,1,763.75,472.312Z" transform="translate(-544.382 -404.405)"/><path class="b" d="M763.75,485.771a6.733,6.733,0,0,1,0-2.773A6.743,6.743,0,0,1,763.75,485.771Z" transform="translate(-544.382 -412.318)"/><path class="b" d="M763.75,499.231a6.735,6.735,0,0,1,0-2.774A6.746,6.746,0,0,1,763.75,499.231Z" transform="translate(-544.382 -420.23)"/><path class="b" d="M763.75,512.69a6.735,6.735,0,0,1,0-2.774A6.745,6.745,0,0,1,763.75,512.69Z" transform="translate(-544.382 -428.142)"/><path class="b" d="M763.159,458.822H759.77v-3.389h3.389Zm-2.834-.555H762.6v-2.28h-2.279Z" transform="translate(-542.127 -396.113)"/><path class="b" d="M681.986,458.822H678.6v-3.389h3.389Zm-2.835-.555h2.28v-2.28h-2.28Z" transform="translate(-494.408 -396.113)"/><path class="b" d="M681.986,529.276H678.6v-3.384h3.389Zm-2.835-.555h2.28v-2.275h-2.28Z" transform="translate(-494.408 -437.534)"/><path class="b" d="M763.159,529.276H759.77v-3.384h3.389Zm-2.834-.555H762.6v-2.275h-2.279Z" transform="translate(-542.127 -437.534)"/><path class="c" d="M231.682,455.015h41.6s-4.093-4.615-9.5-4.615c-3.4,0-5.908,2.052-8.537.272-1.392-.949-5.2-5.641-12.508-4.793S231.682,455.015,231.682,455.015Z" transform="translate(-231.682 -390.437)"/><path class="a" d="M672.8,400.808h26.232s-2.585-2.9-5.991-2.9c-2.141,0-3.722,1.292-5.381.172-.882-.6-3.284-3.561-7.893-3.023S672.8,400.808,672.8,400.808Z" transform="translate(-490.998 -360.582)"/><path class="b" d="M444.971,342.885h28.024s-2.784-3.134-6.424-3.134c-2.291,0-3.982,1.387-5.752.183-.943-.632-3.506-3.8-8.431-3.228S444.971,342.885,444.971,342.885Z" transform="translate(-357.067 -326.277)"/></g><g transform="translate(394.436 376.251)"><path class="d" d="M658.795,489.28s-3.728-1.542-6.224,7.134a104.511,104.511,0,0,0-3.14,13.524s-.743,1.858-2.092,1-3.494-3.628-5.319-2.7-2.119,3.328-1.109,6.534,2.99,10.328,3.162,10.972,0,1.664-1.021,1.209-7.25-5.164-9.313-2.069,2.219,11.576,2.7,12.514.338,1.392-.083,1.73-2.369-1.453-4.2-2.723-4.171-2.424-5.214-.555-.172,8.7,8.359,18.405l4.244,4.238,5.841-1.47c12.315-3.911,16.575-9.3,16.641-11.455s-2.524-2.374-4.743-2.219-4.815.671-4.992.166-.044-.954.827-1.525,8.936-5.608,8.764-9.325-7.954-2.89-9.047-3.034-.727-1.109-.25-1.565,5.847-5.547,8.376-7.766,3.55-4.365,2.424-6.168-4.355-.471-5.947-.427-1.276-1.936-1.276-1.936a104.265,104.265,0,0,0,4.288-13.2c2.335-8.714-1.747-9.313-1.747-9.313" transform="translate(-626.587 -489.174)"/><path class="e" d="M671.218,508.274a.8.8,0,0,1-.033.189l-.133.555c-.122.494-.3,1.187-.527,2.069-.46,1.8-1.154,4.388-2.019,7.588-1.736,6.4-4.21,15.216-6.984,24.962s-5.237,18.494-7.062,24.884l-2.113,7.561c-.244.882-.438,1.57-.555,2.058-.066.222-.117.394-.161.555a.1.1,0,1,1-.028-.011l.133-.555c.122-.494.3-1.187.527-2.069.46-1.8,1.154-4.388,2.019-7.588,1.736-6.4,4.21-15.216,6.984-24.962s5.253-18.527,7.061-24.917l2.113-7.561c.244-.882.438-1.57.555-2.058.067-.222.117-.394.161-.555A.846.846,0,0,1,671.218,508.274Z" transform="translate(-641.274 -500.402)"/><path class="e" d="M670.925,545.1a7.977,7.977,0,0,1,.81,1.4c.455.887,1.049,2.13,1.664,3.511l1.57,3.561a11.816,11.816,0,0,1,.621,1.492,7.771,7.771,0,0,1-.8-1.4c-.449-.893-1.026-2.141-1.664-3.528l-1.575-3.522A10.859,10.859,0,0,1,670.925,545.1Z" transform="translate(-652.652 -522.05)"/><path class="e" d="M683.63,561.03c-.039-.072,2.463-1.42,5.586-3.012s5.686-2.823,5.724-2.774-2.468,1.42-5.591,3.012S683.663,561.1,683.63,561.03Z" transform="translate(-660.121 -528.014)"/><path class="e" d="M671.665,601.428a10.5,10.5,0,0,1,1.609-.361c.993-.205,2.368-.477,3.883-.832s2.862-.7,3.844-.971a10.829,10.829,0,0,1,1.6-.383,8.354,8.354,0,0,1-1.547.555c-.965.311-2.319.7-3.833,1.054s-2.907.6-3.911.749A8.475,8.475,0,0,1,671.665,601.428Z" transform="translate(-653.087 -553.667)"/><path class="e" d="M655.366,585.719a8.62,8.62,0,0,1,1.071,1.109c.638.693,1.5,1.664,2.435,2.746s1.775,2.075,2.369,2.807a7.64,7.64,0,0,1,.915,1.215,8.277,8.277,0,0,1-1.07-1.082c-.633-.693-1.492-1.664-2.435-2.773s-1.769-2.075-2.369-2.8A7.9,7.9,0,0,1,655.366,585.719Z" transform="translate(-643.505 -545.929)"/><path class="e" d="M640.79,615.975a12.773,12.773,0,0,1,1.365,1.393c.815.887,1.93,2.124,3.145,3.5s2.3,2.641,3.079,3.561a13.144,13.144,0,0,1,1.215,1.525,12.428,12.428,0,0,1-1.37-1.392c-.815-.887-1.925-2.125-3.14-3.5s-2.3-2.64-3.079-3.561A13.733,13.733,0,0,1,640.79,615.975Z" transform="translate(-634.937 -563.716)"/><path class="e" d="M661.8,634.319a17.125,17.125,0,0,1,2.024-.516c1.254-.3,2.984-.7,4.887-1.2s3.611-.987,4.848-1.348l1.47-.416a2.431,2.431,0,0,1,.555-.122,1.939,1.939,0,0,1-.516.228c-.333.128-.826.305-1.442.5-1.226.411-2.929.932-4.837,1.431s-3.65.877-4.92,1.109c-.632.122-1.148.211-1.5.266A2.031,2.031,0,0,1,661.8,634.319Z" transform="translate(-647.288 -572.38)"/></g><g transform="translate(275.227 418.89)"><path class="d" d="M339.737,592.668s-1.906.28-.816,4.349a48.746,48.746,0,0,0,2,6.165s.148.925-.6.9-2.251-.643-2.777.2-.049,1.844,1.132,2.88,3.689,3.414,3.912,3.626.394.663-.117.731-4.144-.319-4.225,1.417,3.686,4.088,4.093,4.354.469.477.386.713-1.3-.005-2.331-.078-2.246.031-2.215,1.036,2.021,3.523,7.771,5.349l2.728.687,1.982-1.979c3.984-4.531,4.391-7.722,3.9-8.6s-1.58-.334-2.435.259-1.764,1.43-1.961,1.272-.262-.371-.039-.808,2.223-4.4,1.259-5.844-3.873.754-4.349.966-.557-.264-.477-.565,1.005-3.627,1.477-5.124.334-2.619-.518-3.052-1.855.86-2.484,1.262-.976-.466-.976-.466a48.8,48.8,0,0,0-1.466-6.315c-1.166-4.052-2.907-3.331-2.907-3.331" transform="translate(-337.338 -592.632)"/><path class="e" d="M345.644,601.619c.021.075.044.155.075.259.054.228.145.549.259.961l.987,3.531c.844,2.984,2,7.085,3.3,11.636s2.45,8.67,3.261,11.657c.4,1.494.728,2.7.943,3.543.106.412.189.736.246.966l.062.259a.353.353,0,0,1,.016.088.376.376,0,0,1-.028-.083c-.021-.075-.044-.155-.075-.259-.054-.228-.145-.549-.259-.961l-.987-3.531c-.852-2.984-2-7.069-3.3-11.62s-2.45-8.67-3.261-11.657c-.4-1.495-.728-2.7-.943-3.543-.106-.412-.189-.736-.246-.966l-.062-.259a.36.36,0,0,1-.016-.088A.39.39,0,0,1,345.644,601.619Z" transform="translate(-342.204 -597.875)"/><path class="e" d="M355.442,619.455l-.736,1.645c-.3.648-.567,1.23-.777,1.647a3.622,3.622,0,0,1-.375.655,5.526,5.526,0,0,1,.29-.7l.733-1.663c.287-.645.565-1.225.777-1.639a3.709,3.709,0,0,1,.378-.655A5.045,5.045,0,0,1,355.442,619.455Z" transform="translate(-346.871 -607.985)"/><path class="e" d="M342.7,624.893c-1.458-.744-2.629-1.384-2.611-1.407s1.215.552,2.673,1.295,2.627,1.373,2.609,1.407S344.16,625.636,342.7,624.893Z" transform="translate(-338.956 -610.769)"/><path class="e" d="M350.439,644.964c-.469-.07-1.119-.187-1.826-.35s-1.339-.347-1.79-.492a3.893,3.893,0,0,1-.722-.259,5.125,5.125,0,0,1,.748.179c.459.124,1.088.288,1.8.453s1.35.293,1.813.389a4.935,4.935,0,0,1,.751.168A3.946,3.946,0,0,1,350.439,644.964Z" transform="translate(-342.489 -622.749)"/><path class="e" d="M361.156,638.286c-.28.34-.666.79-1.106,1.308s-.842.971-1.137,1.3a3.891,3.891,0,0,1-.5.505,3.506,3.506,0,0,1,.427-.568c.277-.342.668-.806,1.106-1.311s.84-.959,1.138-1.282a4.013,4.013,0,0,1,.5-.518A3.708,3.708,0,0,1,361.156,638.286Z" transform="translate(-349.727 -619.135)"/><path class="e" d="M366.482,652.558c-.363.43-.87,1.021-1.438,1.663s-1.086,1.22-1.466,1.635a5.782,5.782,0,0,1-.64.65,6.125,6.125,0,0,1,.567-.713c.363-.43.87-1.021,1.438-1.663s1.088-1.22,1.469-1.635a5.924,5.924,0,0,1,.637-.65A6.463,6.463,0,0,1,366.482,652.558Z" transform="translate(-352.387 -627.442)"/><path class="e" d="M353.656,660.381c-.166-.026-.406-.067-.7-.125-.593-.109-1.407-.285-2.3-.518s-1.687-.476-2.259-.668c-.287-.094-.518-.176-.673-.236a.9.9,0,0,1-.241-.106,1.14,1.14,0,0,1,.259.057l.687.195c.577.168,1.375.4,2.264.629s1.7.422,2.282.562a8.022,8.022,0,0,1,.945.241A.938.938,0,0,1,353.656,660.381Z" transform="translate(-343.302 -631.487)"/></g><g transform="translate(258.979 297.085)"><path class="e" d="M356.422,786.137a6.733,6.733,0,0,1,2.774,0A6.75,6.75,0,0,1,356.422,786.137Z" transform="translate(-332.309 -584.497)"/><path class="e" d="M342.963,786.111a6.74,6.74,0,0,1,2.774,0A6.743,6.743,0,0,1,342.963,786.111Z" transform="translate(-324.397 -584.471)"/><path class="e" d="M329.5,786.111a6.74,6.74,0,0,1,2.774,0,6.734,6.734,0,0,1-2.774,0Z" transform="translate(-316.485 -584.471)"/><path class="e" d="M316.045,786.111a6.738,6.738,0,0,1,2.773,0,6.732,6.732,0,0,1-2.773,0Z" transform="translate(-308.573 -584.471)"/><path class="e" d="M302.585,786.111a6.74,6.74,0,0,1,2.774,0,6.734,6.734,0,0,1-2.774,0Z" transform="translate(-300.66 -584.471)"/><path class="e" d="M301.828,773.435a6.749,6.749,0,0,1,0,2.774A6.732,6.732,0,0,1,301.828,773.435Z" transform="translate(-300.13 -577.115)"/><path class="e" d="M301.828,759.976a6.75,6.75,0,0,1,0,2.774A6.732,6.732,0,0,1,301.828,759.976Z" transform="translate(-300.13 -569.203)"/><path class="e" d="M301.828,746.517a6.748,6.748,0,0,1,0,2.773A6.73,6.73,0,0,1,301.828,746.517Z" transform="translate(-300.13 -561.291)"/><path class="e" d="M301.828,733.057a6.749,6.749,0,0,1,0,2.774A6.731,6.731,0,0,1,301.828,733.057Z" transform="translate(-300.13 -553.378)"/><path class="e" d="M301.828,719.6a6.75,6.75,0,0,1,0,2.774A6.732,6.732,0,0,1,301.828,719.6Z" transform="translate(-300.13 -545.466)"/><path class="e" d="M301.828,706.139a6.75,6.75,0,0,1,0,2.774A6.732,6.732,0,0,1,301.828,706.139Z" transform="translate(-300.13 -537.554)"/><path class="e" d="M301.828,692.68a6.748,6.748,0,0,1,0,2.773A6.73,6.73,0,0,1,301.828,692.68Z" transform="translate(-300.13 -529.642)"/><path class="e" d="M301.828,679.22a6.75,6.75,0,0,1,0,2.774A6.732,6.732,0,0,1,301.828,679.22Z" transform="translate(-300.13 -521.729)"/><path class="e" d="M301.828,665.761a6.75,6.75,0,0,1,0,2.774A6.732,6.732,0,0,1,301.828,665.761Z" transform="translate(-300.13 -513.817)"/><path class="e" d="M301.828,652.3a6.748,6.748,0,0,1,0,2.773A6.73,6.73,0,0,1,301.828,652.3Z" transform="translate(-300.13 -505.905)"/><path class="e" d="M301.828,638.843a6.748,6.748,0,0,1,0,2.773A6.73,6.73,0,0,1,301.828,638.843Z" transform="translate(-300.13 -497.993)"/><path class="e" d="M301.828,625.383a6.75,6.75,0,0,1,0,2.774A6.732,6.732,0,0,1,301.828,625.383Z" transform="translate(-300.13 -490.08)"/><path class="e" d="M301.828,611.924a6.749,6.749,0,0,1,0,2.774A6.731,6.731,0,0,1,301.828,611.924Z" transform="translate(-300.13 -482.168)"/><path class="e" d="M301.828,598.465a6.747,6.747,0,0,1,0,2.773A6.73,6.73,0,0,1,301.828,598.465Z" transform="translate(-300.13 -474.256)"/><path class="e" d="M301.828,585.005a6.75,6.75,0,0,1,0,2.774,6.732,6.732,0,0,1,0-2.774Z" transform="translate(-300.13 -466.343)"/><path class="e" d="M301.828,571.546a6.749,6.749,0,0,1,0,2.774A6.732,6.732,0,0,1,301.828,571.546Z" transform="translate(-300.13 -458.431)"/><path class="e" d="M301.828,558.087a6.75,6.75,0,0,1,0,2.774A6.732,6.732,0,0,1,301.828,558.087Z" transform="translate(-300.13 -450.519)"/><path class="e" d="M301.828,544.628a6.748,6.748,0,0,1,0,2.773A6.73,6.73,0,0,1,301.828,544.628Z" transform="translate(-300.13 -442.607)"/><path class="e" d="M301.828,531.168a6.75,6.75,0,0,1,0,2.774A6.732,6.732,0,0,1,301.828,531.168Z" transform="translate(-300.13 -434.694)"/><path class="e" d="M301.828,517.709a6.75,6.75,0,0,1,0,2.774A6.732,6.732,0,0,1,301.828,517.709Z" transform="translate(-300.13 -426.782)"/><path class="e" d="M301.828,504.25a6.748,6.748,0,0,1,0,2.773A6.73,6.73,0,0,1,301.828,504.25Z" transform="translate(-300.13 -418.87)"/><path class="e" d="M307.324,499.808a6.74,6.74,0,0,1-2.774,0,6.74,6.74,0,0,1,2.774,0Z" transform="translate(-301.815 -416.164)"/><path class="e" d="M320.783,499.808a6.738,6.738,0,0,1-2.773,0,6.738,6.738,0,0,1,2.773,0Z" transform="translate(-309.728 -416.164)"/><path class="e" d="M334.243,499.808a6.74,6.74,0,0,1-2.774,0,6.74,6.74,0,0,1,2.774,0Z" transform="translate(-317.64 -416.164)"/><path class="e" d="M347.7,499.832a6.733,6.733,0,0,1-2.774,0A6.749,6.749,0,0,1,347.7,499.832Z" transform="translate(-325.552 -416.188)"/><path class="e" d="M360.383,500.6c-.061,0-.111-.333-.133-.81l.133.133h-.555a3.5,3.5,0,0,1-1.387-.144,3.5,3.5,0,0,1,1.387-.144h.555a.123.123,0,0,1,.117.127v.006C360.488,500.269,360.438,500.6,360.383,500.6Z" transform="translate(-333.496 -416.148)"/><path class="e" d="M362.947,511.505a6.748,6.748,0,0,1,0-2.773A6.733,6.733,0,0,1,362.947,511.505Z" transform="translate(-336.06 -421.505)"/><path class="e" d="M362.947,524.965a6.75,6.75,0,0,1,0-2.774A6.735,6.735,0,0,1,362.947,524.965Z" transform="translate(-336.06 -429.417)"/><path class="e" d="M362.947,538.424a6.75,6.75,0,0,1,0-2.774A6.735,6.735,0,0,1,362.947,538.424Z" transform="translate(-336.06 -437.329)"/><path class="e" d="M362.947,551.883a6.748,6.748,0,0,1,0-2.773A6.733,6.733,0,0,1,362.947,551.883Z" transform="translate(-336.06 -445.242)"/><path class="e" d="M362.947,565.343a6.75,6.75,0,0,1,0-2.774A6.735,6.735,0,0,1,362.947,565.343Z" transform="translate(-336.06 -453.154)"/><path class="e" d="M362.947,578.8a6.75,6.75,0,0,1,0-2.774A6.735,6.735,0,0,1,362.947,578.8Z" transform="translate(-336.06 -461.066)"/><path class="e" d="M362.947,592.261a6.749,6.749,0,0,1,0-2.774A6.734,6.734,0,0,1,362.947,592.261Z" transform="translate(-336.06 -468.978)"/><path class="e" d="M362.947,605.72a6.748,6.748,0,0,1,0-2.773A6.733,6.733,0,0,1,362.947,605.72Z" transform="translate(-336.06 -476.891)"/><path class="e" d="M362.947,619.18a6.75,6.75,0,0,1,0-2.774A6.735,6.735,0,0,1,362.947,619.18Z" transform="translate(-336.06 -484.803)"/><path class="e" d="M362.947,632.639a6.749,6.749,0,0,1,0-2.774A6.735,6.735,0,0,1,362.947,632.639Z" transform="translate(-336.06 -492.715)"/><path class="e" d="M362.947,646.1a6.75,6.75,0,0,1,0-2.774A6.735,6.735,0,0,1,362.947,646.1Z" transform="translate(-336.06 -500.627)"/><path class="e" d="M362.947,659.557a6.748,6.748,0,0,1,0-2.773A6.733,6.733,0,0,1,362.947,659.557Z" transform="translate(-336.06 -508.54)"/><path class="e" d="M362.947,673.017a6.749,6.749,0,0,1,0-2.774A6.735,6.735,0,0,1,362.947,673.017Z" transform="translate(-336.06 -516.452)"/><path class="e" d="M362.947,686.476a6.75,6.75,0,0,1,0-2.774A6.735,6.735,0,0,1,362.947,686.476Z" transform="translate(-336.06 -524.364)"/><path class="e" d="M362.947,699.935a6.748,6.748,0,0,1,0-2.773A6.733,6.733,0,0,1,362.947,699.935Z" transform="translate(-336.06 -532.276)"/><path class="e" d="M362.947,713.394a6.747,6.747,0,0,1,0-2.773A6.733,6.733,0,0,1,362.947,713.394Z" transform="translate(-336.06 -540.189)"/><path class="e" d="M362.947,726.854a6.75,6.75,0,0,1,0-2.774A6.735,6.735,0,0,1,362.947,726.854Z" transform="translate(-336.06 -548.101)"/><path class="e" d="M362.947,740.313a6.75,6.75,0,0,1,0-2.774A6.735,6.735,0,0,1,362.947,740.313Z" transform="translate(-336.06 -556.013)"/><path class="e" d="M362.947,753.772a6.747,6.747,0,0,1,0-2.773A6.733,6.733,0,0,1,362.947,753.772Z" transform="translate(-336.06 -563.925)"/><path class="e" d="M362.947,767.232a6.75,6.75,0,0,1,0-2.774A6.735,6.735,0,0,1,362.947,767.232Z" transform="translate(-336.06 -571.837)"/><path class="e" d="M362.947,780.691a6.75,6.75,0,0,1,0-2.774A6.735,6.735,0,0,1,362.947,780.691Z" transform="translate(-336.06 -579.749)"/><path class="e" d="M586.944,385.994c-.055.056-.555-.338-1.081-.882s-.938-1.026-.882-1.109.555.338,1.109.882S587,385.939,586.944,385.994Z" transform="translate(-466.668 -348.175)"/><path class="e" d="M596.467,395.518c-.056.055-.555-.338-1.082-.877s-.937-1.026-.876-1.109.555.338,1.081.882S596.522,395.462,596.467,395.518Z" transform="translate(-472.268 -353.777)"/><path class="e" d="M605.982,405.034c-.056.055-.555-.339-1.082-.877s-.938-1.026-.876-1.109.554.338,1.081.882S606.038,404.978,605.982,405.034Z" transform="translate(-477.863 -359.371)"/><path class="e" d="M614.084,415.224a3.5,3.5,0,0,1-.127-1.359v-.616l.033.089c-.3-.338-.488-.593-.449-.633s.294.144.633.45a.094.094,0,0,1,.039.078h0v.616A3.505,3.505,0,0,1,614.084,415.224Z" transform="translate(-483.457 -365.051)"/><path class="e" d="M614.662,428.327a6.748,6.748,0,0,1,0-2.773A6.735,6.735,0,0,1,614.662,428.327Z" transform="translate(-484.035 -372.608)"/><path class="e" d="M614.662,441.786a6.748,6.748,0,0,1,0-2.773A6.735,6.735,0,0,1,614.662,441.786Z" transform="translate(-484.035 -380.52)"/><path class="e" d="M614.662,455.246a6.75,6.75,0,0,1,0-2.774A6.737,6.737,0,0,1,614.662,455.246Z" transform="translate(-484.035 -388.432)"/><path class="e" d="M614.662,468.7a6.75,6.75,0,0,1,0-2.774A6.737,6.737,0,0,1,614.662,468.7Z" transform="translate(-484.035 -396.344)"/><path class="e" d="M614.662,482.164a6.748,6.748,0,0,1,0-2.773A6.735,6.735,0,0,1,614.662,482.164Z" transform="translate(-484.035 -404.256)"/><path class="e" d="M614.662,495.623a6.748,6.748,0,0,1,0-2.773A6.735,6.735,0,0,1,614.662,495.623Z" transform="translate(-484.035 -412.168)"/><path class="e" d="M614.662,509.083a6.75,6.75,0,0,1,0-2.774A6.737,6.737,0,0,1,614.662,509.083Z" transform="translate(-484.035 -420.081)"/><path class="e" d="M614.662,522.542a6.75,6.75,0,0,1,0-2.774A6.737,6.737,0,0,1,614.662,522.542Z" transform="translate(-484.035 -427.993)"/><path class="e" d="M614.662,536a6.748,6.748,0,0,1,0-2.773A6.735,6.735,0,0,1,614.662,536Z" transform="translate(-484.035 -435.905)"/><path class="e" d="M614.662,549.461a6.75,6.75,0,0,1,0-2.774A6.737,6.737,0,0,1,614.662,549.461Z" transform="translate(-484.035 -443.817)"/><path class="e" d="M614.662,562.92a6.75,6.75,0,0,1,0-2.774A6.737,6.737,0,0,1,614.662,562.92Z" transform="translate(-484.035 -451.729)"/><path class="e" d="M614.662,576.379a6.749,6.749,0,0,1,0-2.774A6.737,6.737,0,0,1,614.662,576.379Z" transform="translate(-484.035 -459.642)"/><path class="e" d="M614.662,589.838a6.748,6.748,0,0,1,0-2.773A6.736,6.736,0,0,1,614.662,589.838Z" transform="translate(-484.035 -467.554)"/><path class="e" d="M614.662,603.3a6.75,6.75,0,0,1,0-2.774A6.737,6.737,0,0,1,614.662,603.3Z" transform="translate(-484.035 -475.466)"/><path class="e" d="M614.662,616.757a6.75,6.75,0,0,1,0-2.774A6.737,6.737,0,0,1,614.662,616.757Z" transform="translate(-484.035 -483.378)"/><path class="e" d="M614.662,630.216a6.748,6.748,0,0,1,0-2.773A6.735,6.735,0,0,1,614.662,630.216Z" transform="translate(-484.035 -491.291)"/><path class="e" d="M614.662,643.675a6.747,6.747,0,0,1,0-2.773A6.735,6.735,0,0,1,614.662,643.675Z" transform="translate(-484.035 -499.203)"/><path class="e" d="M614.662,657.135a6.749,6.749,0,0,1,0-2.774A6.737,6.737,0,0,1,614.662,657.135Z" transform="translate(-484.035 -507.115)"/><path class="e" d="M614.662,670.594a6.75,6.75,0,0,1,0-2.774A6.737,6.737,0,0,1,614.662,670.594Z" transform="translate(-484.035 -515.027)"/><path class="e" d="M614.662,684.053a6.748,6.748,0,0,1,0-2.773A6.735,6.735,0,0,1,614.662,684.053Z" transform="translate(-484.035 -522.94)"/><path class="e" d="M614.662,697.513a6.75,6.75,0,0,1,0-2.774A6.737,6.737,0,0,1,614.662,697.513Z" transform="translate(-484.035 -530.852)"/><path class="e" d="M614.662,710.972a6.75,6.75,0,0,1,0-2.774A6.737,6.737,0,0,1,614.662,710.972Z" transform="translate(-484.035 -538.764)"/><path class="e" d="M614.662,724.431a6.75,6.75,0,0,1,0-2.774A6.737,6.737,0,0,1,614.662,724.431Z" transform="translate(-484.035 -546.676)"/><path class="e" d="M614.662,737.89a6.748,6.748,0,0,1,0-2.773A6.735,6.735,0,0,1,614.662,737.89Z" transform="translate(-484.035 -554.589)"/><path class="e" d="M614.662,751.35a6.75,6.75,0,0,1,0-2.774A6.737,6.737,0,0,1,614.662,751.35Z" transform="translate(-484.035 -562.501)"/><path class="e" d="M614.662,764.809a6.75,6.75,0,0,1,0-2.774A6.737,6.737,0,0,1,614.662,764.809Z" transform="translate(-484.035 -570.413)"/><path class="e" d="M614.662,778.268a6.75,6.75,0,0,1,0-2.774A6.737,6.737,0,0,1,614.662,778.268Z" transform="translate(-484.035 -578.325)"/><path class="e" d="M603.79,784.4a6.746,6.746,0,0,1,2.774,0A6.738,6.738,0,0,1,603.79,784.4Z" transform="translate(-477.728 -583.476)"/><path class="e" d="M590.331,784.4a6.745,6.745,0,0,1,2.774,0A6.737,6.737,0,0,1,590.331,784.4Z" transform="translate(-469.816 -583.476)"/><path class="e" d="M584.742,776.477a6.733,6.733,0,0,1,0,2.774A6.75,6.75,0,0,1,584.742,776.477Z" transform="translate(-466.446 -578.903)"/><path class="e" d="M584.742,763.018a6.73,6.73,0,0,1,0,2.773A6.747,6.747,0,0,1,584.742,763.018Z" transform="translate(-466.446 -570.991)"/><path class="e" d="M584.742,749.558a6.733,6.733,0,0,1,0,2.774A6.75,6.75,0,0,1,584.742,749.558Z" transform="translate(-466.446 -563.078)"/><path class="e" d="M584.742,736.1a6.733,6.733,0,0,1,0,2.774A6.75,6.75,0,0,1,584.742,736.1Z" transform="translate(-466.446 -555.166)"/><path class="e" d="M584.742,722.64a6.733,6.733,0,0,1,0,2.774A6.749,6.749,0,0,1,584.742,722.64Z" transform="translate(-466.446 -547.254)"/><path class="e" d="M584.742,709.181a6.731,6.731,0,0,1,0,2.773A6.748,6.748,0,0,1,584.742,709.181Z" transform="translate(-466.446 -539.342)"/><path class="e" d="M584.742,695.721a6.733,6.733,0,0,1,0,2.774A6.75,6.75,0,0,1,584.742,695.721Z" transform="translate(-466.446 -531.429)"/><path class="e" d="M584.742,682.262a6.733,6.733,0,0,1,0,2.774A6.75,6.75,0,0,1,584.742,682.262Z" transform="translate(-466.446 -523.517)"/><path class="e" d="M584.742,668.8a6.731,6.731,0,0,1,0,2.773A6.748,6.748,0,0,1,584.742,668.8Z" transform="translate(-466.446 -515.605)"/><path class="e" d="M584.742,655.344a6.731,6.731,0,0,1,0,2.773A6.748,6.748,0,0,1,584.742,655.344Z" transform="translate(-466.446 -507.693)"/><path class="e" d="M584.742,641.884a6.732,6.732,0,0,1,0,2.774A6.749,6.749,0,0,1,584.742,641.884Z" transform="translate(-466.446 -499.78)"/><path class="e" d="M584.742,628.425a6.733,6.733,0,0,1,0,2.774A6.75,6.75,0,0,1,584.742,628.425Z" transform="translate(-466.446 -491.868)"/><path class="e" d="M584.742,614.966a6.731,6.731,0,0,1,0,2.773A6.748,6.748,0,0,1,584.742,614.966Z" transform="translate(-466.446 -483.956)"/><path class="e" d="M584.742,601.507a6.731,6.731,0,0,1,0,2.773A6.748,6.748,0,0,1,584.742,601.507Z" transform="translate(-466.446 -476.044)"/><path class="e" d="M584.742,588.047a6.733,6.733,0,0,1,0,2.774A6.75,6.75,0,0,1,584.742,588.047Z" transform="translate(-466.446 -468.132)"/><path class="e" d="M584.742,574.588a6.733,6.733,0,0,1,0,2.774A6.75,6.75,0,0,1,584.742,574.588Z" transform="translate(-466.446 -460.219)"/><path class="e" d="M584.742,561.129a6.731,6.731,0,0,1,0,2.773A6.748,6.748,0,0,1,584.742,561.129Z" transform="translate(-466.446 -452.307)"/><path class="e" d="M584.742,547.669a6.733,6.733,0,0,1,0,2.774A6.75,6.75,0,0,1,584.742,547.669Z" transform="translate(-466.446 -444.395)"/><path class="e" d="M584.742,534.21a6.733,6.733,0,0,1,0,2.774A6.75,6.75,0,0,1,584.742,534.21Z" transform="translate(-466.446 -436.483)"/><path class="e" d="M584.742,520.751a6.733,6.733,0,0,1,0,2.774A6.75,6.75,0,0,1,584.742,520.751Z" transform="translate(-466.446 -428.57)"/><path class="e" d="M584.742,507.292a6.731,6.731,0,0,1,0,2.773A6.748,6.748,0,0,1,584.742,507.292Z" transform="translate(-466.446 -420.658)"/><path class="e" d="M584.742,493.832a6.733,6.733,0,0,1,0,2.774A6.749,6.749,0,0,1,584.742,493.832Z" transform="translate(-466.446 -412.746)"/><path class="e" d="M584.742,480.373a6.733,6.733,0,0,1,0,2.774A6.75,6.75,0,0,1,584.742,480.373Z" transform="translate(-466.446 -404.834)"/><path class="e" d="M584.742,466.914a6.731,6.731,0,0,1,0,2.773A6.748,6.748,0,0,1,584.742,466.914Z" transform="translate(-466.446 -396.922)"/><path class="e" d="M584.742,453.455a6.731,6.731,0,0,1,0,2.773A6.748,6.748,0,0,1,584.742,453.455Z" transform="translate(-466.446 -389.01)"/><path class="e" d="M584.742,439.995a6.733,6.733,0,0,1,0,2.774A6.75,6.75,0,0,1,584.742,439.995Z" transform="translate(-466.446 -381.097)"/><path class="e" d="M584.742,426.536a6.733,6.733,0,0,1,0,2.774A6.75,6.75,0,0,1,584.742,426.536Z" transform="translate(-466.446 -373.185)"/><path class="e" d="M584.742,413.077a6.731,6.731,0,0,1,0,2.773A6.748,6.748,0,0,1,584.742,413.077Z" transform="translate(-466.446 -365.273)"/><path class="e" d="M584.718,399.618a6.738,6.738,0,0,1,0,2.773,6.735,6.735,0,0,1,0-2.773Z" transform="translate(-466.422 -357.361)"/><path class="e" d="M584.718,386.158a6.74,6.74,0,0,1,0,2.774,6.737,6.737,0,0,1,0-2.774Z" transform="translate(-466.422 -349.448)"/><path class="e" d="M490.805,781.242a3.384,3.384,0,0,1,.144,1.386l-.144-.144h.982c.25.028.405.067.405.106s-.155.078-.405.1c-.127,0-.272.028-.438.033h-.555l-.144-.144A3.5,3.5,0,0,1,490.805,781.242Z" transform="translate(-411.211 -581.704)"/><path class="e" d="M490.835,767.823a6.677,6.677,0,0,1,0,2.773A6.689,6.689,0,0,1,490.835,767.823Z" transform="translate(-411.24 -573.816)"/><path class="e" d="M490.835,754.4a6.7,6.7,0,0,1,0,2.773A6.7,6.7,0,0,1,490.835,754.4Z" transform="translate(-411.241 -565.927)"/><path class="e" d="M490.835,740.985a6.706,6.706,0,0,1,0,2.774A6.706,6.706,0,0,1,490.835,740.985Z" transform="translate(-411.241 -558.038)"/><path class="e" d="M490.835,727.566a6.706,6.706,0,0,1,0,2.774A6.706,6.706,0,0,1,490.835,727.566Z" transform="translate(-411.241 -550.15)"/><path class="e" d="M490.835,714.161a6.677,6.677,0,0,1,0,2.773A6.689,6.689,0,0,1,490.835,714.161Z" transform="translate(-411.24 -542.27)"/><path class="e" d="M490.835,700.742a6.677,6.677,0,0,1,0,2.773A6.689,6.689,0,0,1,490.835,700.742Z" transform="translate(-411.24 -534.381)"/><path class="e" d="M490.835,687.323a6.677,6.677,0,0,1,0,2.773A6.689,6.689,0,0,1,490.835,687.323Z" transform="translate(-411.24 -526.492)"/><path class="e" d="M490.835,673.944a6.679,6.679,0,0,1,0,2.774A6.691,6.691,0,0,1,490.835,673.944Z" transform="translate(-411.24 -518.627)"/><path class="e" d="M490.835,660.485a6.679,6.679,0,0,1,0,2.774A6.691,6.691,0,0,1,490.835,660.485Z" transform="translate(-411.24 -510.715)"/><path class="e" d="M490.835,647.026a6.7,6.7,0,0,1,0,2.773A6.7,6.7,0,0,1,490.835,647.026Z" transform="translate(-411.241 -502.803)"/><path class="e" d="M490.835,633.647a6.706,6.706,0,0,1,0,2.774A6.706,6.706,0,0,1,490.835,633.647Z" transform="translate(-411.241 -494.938)"/><path class="e" d="M490.835,620.228a6.706,6.706,0,0,1,0,2.774A6.706,6.706,0,0,1,490.835,620.228Z" transform="translate(-411.241 -487.05)"/><path class="e" d="M490.835,606.823a6.679,6.679,0,0,1,0,2.774A6.691,6.691,0,0,1,490.835,606.823Z" transform="translate(-411.24 -479.169)"/><path class="e" d="M490.835,593.4a6.679,6.679,0,0,1,0,2.774A6.691,6.691,0,0,1,490.835,593.4Z" transform="translate(-411.24 -471.281)"/><path class="e" d="M490.835,579.985a6.679,6.679,0,0,1,0,2.774A6.691,6.691,0,0,1,490.835,579.985Z" transform="translate(-411.24 -463.392)"/><path class="e" d="M490.835,566.566a6.68,6.68,0,0,1,0,2.774A6.692,6.692,0,0,1,490.835,566.566Z" transform="translate(-411.24 -455.504)"/><path class="e" d="M490.835,553.147a6.706,6.706,0,0,1,0,2.774A6.706,6.706,0,0,1,490.835,553.147Z" transform="translate(-411.241 -447.615)"/><path class="e" d="M490.835,539.728a6.706,6.706,0,0,1,0,2.774A6.706,6.706,0,0,1,490.835,539.728Z" transform="translate(-411.241 -439.726)"/><path class="e" d="M490.835,526.31a6.7,6.7,0,0,1,0,2.773A6.7,6.7,0,0,1,490.835,526.31Z" transform="translate(-411.241 -431.838)"/><path class="e" d="M490.835,512.9a6.679,6.679,0,0,1,0,2.774A6.692,6.692,0,0,1,490.835,512.9Z" transform="translate(-411.24 -423.957)"/><path class="e" d="M490.835,499.485a6.679,6.679,0,0,1,0,2.774A6.691,6.691,0,0,1,490.835,499.485Z" transform="translate(-411.24 -416.069)"/><path class="e" d="M490.835,486.066a6.679,6.679,0,0,1,0,2.774A6.691,6.691,0,0,1,490.835,486.066Z" transform="translate(-411.24 -408.18)"/><path class="e" d="M490.835,472.648a6.677,6.677,0,0,1,0,2.773A6.689,6.689,0,0,1,490.835,472.648Z" transform="translate(-411.24 -400.292)"/><path class="e" d="M490.835,459.229a6.7,6.7,0,0,1,0,2.773A6.7,6.7,0,0,1,490.835,459.229Z" transform="translate(-411.241 -392.404)"/><path class="e" d="M490.835,445.81a6.7,6.7,0,0,1,0,2.773A6.7,6.7,0,0,1,490.835,445.81Z" transform="translate(-411.241 -384.515)"/><path class="e" d="M490.835,432.391a6.7,6.7,0,0,1,0,2.773A6.7,6.7,0,0,1,490.835,432.391Z" transform="translate(-411.241 -376.627)"/><path class="e" d="M490.835,418.972a6.706,6.706,0,0,1,0,2.774A6.706,6.706,0,0,1,490.835,418.972Z" transform="translate(-411.241 -368.738)"/><path class="e" d="M490.835,405.551a6.685,6.685,0,0,1,0,2.762,6.689,6.689,0,0,1,0-2.773Z" transform="translate(-411.24 -360.842)"/><path class="e" d="M490.813,392.148a6.685,6.685,0,0,1,0,2.762,6.682,6.682,0,0,1,0-2.762Z" transform="translate(-411.218 -352.969)"/><path class="e" d="M490.813,378.729a6.685,6.685,0,0,1,0,2.762,6.682,6.682,0,0,1,0-2.762Z" transform="translate(-411.218 -345.081)"/><path class="e" d="M490.813,365.31a3.372,3.372,0,0,1,.144,1.381,3.331,3.331,0,0,1-.144,1.382,6.684,6.684,0,0,1,0-2.763Z" transform="translate(-411.218 -337.192)"/><path class="e" d="M490.813,351.891a6.712,6.712,0,0,1,0,2.768,6.712,6.712,0,0,1,0-2.768Z" transform="translate(-411.219 -329.304)"/><path class="e" d="M490.813,338.472a6.712,6.712,0,0,1,0,2.768,6.712,6.712,0,0,1,0-2.768Z" transform="translate(-411.219 -321.415)"/><path class="e" d="M490.813,325.053a6.712,6.712,0,0,1,0,2.768,6.712,6.712,0,0,1,0-2.768Z" transform="translate(-411.219 -313.526)"/><path class="e" d="M490.813,311.648a3.329,3.329,0,0,1,.144,1.381,3.371,3.371,0,0,1-.144,1.381,6.682,6.682,0,0,1,0-2.762Z" transform="translate(-411.218 -305.646)"/><path class="e" d="M491.882,302.359c-.05.061-.555-.3-1.137-.8.483-.216.133-.061.239-.111h0v.521a2.2,2.2,0,0,1-.028.444c0,.249-.061.4-.106.4s-.072-.155-.1-.4a2.173,2.173,0,0,0-.033-.444.611.611,0,0,1,0-.255v-.266h0c.111-.05-.239.111.244-.106C491.511,301.832,491.938,302.286,491.882,302.359Z" transform="translate(-411.245 -299.585)"/><path class="e" d="M500.953,310.274a3.815,3.815,0,0,1-1.17-.837c-.6-.527-1.037-1-.982-1.06a3.813,3.813,0,0,1,1.17.838C500.565,309.742,501.02,310.213,500.953,310.274Z" transform="translate(-416.006 -303.723)"/><path class="e" d="M511.411,319.461a3.7,3.7,0,0,1-1.17-.837c-.6-.521-1.037-.993-.982-1.054a3.711,3.711,0,0,1,1.17.837C511.051,318.929,511.467,319.4,511.411,319.461Z" transform="translate(-422.154 -309.127)"/><path class="e" d="M521.869,328.685a3.814,3.814,0,0,1-1.17-.81c-.6-.555-1.037-1-.982-1.06a3.824,3.824,0,0,1,1.17.838C521.481,328.153,521.925,328.624,521.869,328.685Z" transform="translate(-428.302 -314.563)"/><path class="e" d="M532.327,337.833a3.7,3.7,0,0,1-1.17-.837c-.6-.521-1.037-.993-.982-1.054a3.7,3.7,0,0,1,1.17.837C531.939,337.3,532.383,337.772,532.327,337.833Z" transform="translate(-434.45 -319.928)"/><path class="e" d="M542.839,347.018a3.82,3.82,0,0,1-1.17-.837c-.6-.527-1.037-1-.982-1.06a3.818,3.818,0,0,1,1.17.837A4.683,4.683,0,0,1,542.839,347.018Z" transform="translate(-440.629 -325.324)"/><path class="e" d="M553.242,356.205a3.7,3.7,0,0,1-1.17-.837c-.6-.521-1.037-.993-.982-1.054a3.7,3.7,0,0,1,1.193.821C552.838,355.69,553.3,356.144,553.242,356.205Z" transform="translate(-446.745 -330.728)"/><path class="e" d="M563.7,365.39a3.779,3.779,0,0,1-1.171-.843c-.6-.521-1.037-.993-.982-1.054a3.7,3.7,0,0,1,1.171.837C563.312,364.858,563.756,365.329,563.7,365.39Z" transform="translate(-452.893 -336.124)"/><path class="e" d="M574.158,374.577a3.711,3.711,0,0,1-1.171-.837c-.6-.521-1.037-.993-.982-1.054a3.705,3.705,0,0,1,1.17.837C573.77,374.045,574.214,374.516,574.158,374.577Z" transform="translate(-459.041 -341.528)"/><path class="e" d="M583.532,384.227a3.5,3.5,0,0,1-.144-1.386l.05.111h0l-.056-.044-.1-.094-.194-.177-.311-.317c-.167-.183-.261-.31-.233-.344s.166.044.371.194c.1.072.222.161.35.266l.2.167.106.089.055.044h.028c0,.044-.05-.111.045.106A3.382,3.382,0,0,1,583.532,384.227Z" transform="translate(-465.236 -346.984)"/><path class="e" d="M584.718,396.877a6.63,6.63,0,0,1,0-2.751,6.633,6.633,0,0,1,0,2.751Z" transform="translate(-466.422 -354.132)"/><path class="e" d="M584.739,410.224a6.659,6.659,0,0,1,0-2.773A6.655,6.655,0,0,1,584.739,410.224Z" transform="translate(-466.443 -361.965)"/><path class="e" d="M584.739,423.549a6.661,6.661,0,0,1,0-2.774A6.657,6.657,0,0,1,584.739,423.549Z" transform="translate(-466.443 -369.798)"/><path class="e" d="M584.739,436.887a6.659,6.659,0,0,1,0-2.773A6.654,6.654,0,0,1,584.739,436.887Z" transform="translate(-466.443 -377.64)"/><path class="e" d="M584.739,450.239a6.66,6.66,0,0,1,0-2.774A6.656,6.656,0,0,1,584.739,450.239Z" transform="translate(-466.443 -385.488)"/><path class="e" d="M584.739,463.59a6.659,6.659,0,0,1,0-2.773A6.654,6.654,0,0,1,584.739,463.59Z" transform="translate(-466.443 -393.337)"/><path class="e" d="M584.739,476.942a6.66,6.66,0,0,1,0-2.774A6.656,6.656,0,0,1,584.739,476.942Z" transform="translate(-466.443 -401.186)"/><path class="e" d="M584.739,490.294a6.661,6.661,0,0,1,0-2.774A6.657,6.657,0,0,1,584.739,490.294Z" transform="translate(-466.443 -409.035)"/><path class="e" d="M584.739,503.632a6.661,6.661,0,0,1,0-2.774A6.657,6.657,0,0,1,584.739,503.632Z" transform="translate(-466.443 -416.876)"/><path class="e" d="M584.739,516.983a6.659,6.659,0,0,1,0-2.773A6.655,6.655,0,0,1,584.739,516.983Z" transform="translate(-466.443 -424.725)"/><path class="e" d="M584.739,530.335a6.661,6.661,0,0,1,0-2.774A6.657,6.657,0,0,1,584.739,530.335Z" transform="translate(-466.443 -432.574)"/><path class="e" d="M584.739,543.687a6.661,6.661,0,0,1,0-2.774A6.657,6.657,0,0,1,584.739,543.687Z" transform="translate(-466.443 -440.423)"/><path class="e" d="M584.742,557.064a6.617,6.617,0,0,1,0-2.746A6.6,6.6,0,0,1,584.742,557.064Z" transform="translate(-466.446 -448.303)"/><path class="e" d="M584.739,570.39a6.661,6.661,0,0,1,0-2.774A6.657,6.657,0,0,1,584.739,570.39Z" transform="translate(-466.443 -456.121)"/><path class="e" d="M584.739,583.728a6.661,6.661,0,0,1,0-2.774A6.657,6.657,0,0,1,584.739,583.728Z" transform="translate(-466.443 -463.962)"/><path class="e" d="M584.739,597.079a6.659,6.659,0,0,1,0-2.773A6.654,6.654,0,0,1,584.739,597.079Z" transform="translate(-466.443 -471.811)"/><path class="e" d="M584.739,610.431a6.661,6.661,0,0,1,0-2.774A6.657,6.657,0,0,1,584.739,610.431Z" transform="translate(-466.443 -479.66)"/><path class="e" d="M584.739,623.769a6.659,6.659,0,0,1,0-2.773A6.654,6.654,0,0,1,584.739,623.769Z" transform="translate(-466.443 -487.501)"/><path class="e" d="M584.739,637.121a6.661,6.661,0,0,1,0-2.774A6.657,6.657,0,0,1,584.739,637.121Z" transform="translate(-466.443 -495.35)"/><path class="e" d="M584.739,650.472a6.659,6.659,0,0,1,0-2.773A6.654,6.654,0,0,1,584.739,650.472Z" transform="translate(-466.443 -503.199)"/><path class="e" d="M584.739,663.824a6.66,6.66,0,0,1,0-2.774A6.656,6.656,0,0,1,584.739,663.824Z" transform="translate(-466.443 -511.047)"/><path class="e" d="M584.742,677.2a6.615,6.615,0,0,1,0-2.746A6.6,6.6,0,0,1,584.742,677.2Z" transform="translate(-466.446 -518.928)"/><path class="e" d="M584.739,690.514a6.661,6.661,0,0,1,0-2.774A6.657,6.657,0,0,1,584.739,690.514Z" transform="translate(-466.443 -526.738)"/><path class="e" d="M584.739,703.865a6.658,6.658,0,0,1,0-2.773A6.654,6.654,0,0,1,584.739,703.865Z" transform="translate(-466.443 -534.587)"/><path class="e" d="M584.739,717.217a6.66,6.66,0,0,1,0-2.774A6.656,6.656,0,0,1,584.739,717.217Z" transform="translate(-466.443 -542.435)"/><path class="e" d="M584.739,730.555a6.661,6.661,0,0,1,0-2.774A6.657,6.657,0,0,1,584.739,730.555Z" transform="translate(-466.443 -550.276)"/><path class="e" d="M584.739,743.907a6.661,6.661,0,0,1,0-2.774A6.657,6.657,0,0,1,584.739,743.907Z" transform="translate(-466.443 -558.125)"/><path class="e" d="M584.739,757.258a6.659,6.659,0,0,1,0-2.773A6.655,6.655,0,0,1,584.739,757.258Z" transform="translate(-466.443 -565.975)"/><path class="e" d="M584.739,770.61a6.66,6.66,0,0,1,0-2.774A6.656,6.656,0,0,1,584.739,770.61Z" transform="translate(-466.443 -573.823)"/><path class="e" d="M581.623,782.684a3.4,3.4,0,0,1,1.37-.122l-.144.144h0v-.521a1.83,1.83,0,0,1,.033-.444c0-.249.061-.4.1-.4s.078.155.106.4v.965h0l-.144.144A3.487,3.487,0,0,1,581.623,782.684Z" transform="translate(-464.697 -581.759)"/><path class="e" d="M568.2,784.4a6.72,6.72,0,0,1,2.774,0A6.7,6.7,0,0,1,568.2,784.4Z" transform="translate(-456.809 -583.475)"/><path class="e" d="M554.8,784.4a6.687,6.687,0,0,1,2.773,0A6.677,6.677,0,0,1,554.8,784.4Z" transform="translate(-448.928 -583.474)"/><path class="e" d="M541.38,784.4a6.687,6.687,0,0,1,2.773,0A6.677,6.677,0,0,1,541.38,784.4Z" transform="translate(-441.04 -583.474)"/><path class="e" d="M527.961,784.4a6.687,6.687,0,0,1,2.773,0A6.677,6.677,0,0,1,527.961,784.4Z" transform="translate(-433.151 -583.474)"/><path class="e" d="M514.542,784.4a6.689,6.689,0,0,1,2.774,0A6.679,6.679,0,0,1,514.542,784.4Z" transform="translate(-425.263 -583.474)"/><path class="e" d="M501.123,784.4a6.689,6.689,0,0,1,2.774,0A6.679,6.679,0,0,1,501.123,784.4Z" transform="translate(-417.374 -583.474)"/><rect class="f" width="4.094" height="8.626" transform="translate(86.095 27.458)"/><rect class="f" width="4.094" height="8.631" transform="translate(85.574 44.803)"/><rect class="f" width="4.094" height="8.631" transform="translate(96.846 44.803)"/><rect class="f" width="4.094" height="8.631" transform="translate(108.112 44.803)"/><rect class="f" width="4.094" height="8.631" transform="translate(85.574 61.578)"/><rect class="f" width="4.094" height="8.631" transform="translate(96.846 61.578)"/><rect class="g" width="4.094" height="8.631" transform="translate(108.112 61.578)"/><rect class="f" width="4.094" height="8.631" transform="translate(85.574 78.357)"/><rect class="f" width="4.094" height="8.631" transform="translate(96.846 78.357)"/><rect class="g" width="4.094" height="8.631" transform="translate(108.112 78.357)"/><rect class="f" width="4.094" height="8.631" transform="translate(85.574 95.132)"/><rect class="f" width="4.094" height="8.631" transform="translate(96.846 95.132)"/><rect class="g" width="4.094" height="8.631" transform="translate(108.112 95.132)"/><rect class="f" width="4.094" height="8.631" transform="translate(85.574 111.911)"/><rect class="f" width="4.094" height="8.631" transform="translate(96.846 111.911)"/><rect class="g" width="4.094" height="8.631" transform="translate(108.112 111.911)"/><rect class="g" width="4.094" height="8.631" transform="translate(85.574 128.685)"/><rect class="g" width="4.094" height="8.631" transform="translate(96.846 128.685)"/><rect class="g" width="4.094" height="8.631" transform="translate(108.112 128.685)"/><rect class="g" width="4.094" height="8.631" transform="translate(85.574 145.465)"/><rect class="g" width="4.094" height="8.631" transform="translate(96.846 145.465)"/><rect class="g" width="4.094" height="8.631" transform="translate(108.112 145.465)"/><rect class="g" width="4.094" height="8.631" transform="translate(85.574 162.239)"/><rect class="g" width="4.094" height="8.631" transform="translate(96.846 162.239)"/><rect class="g" width="4.094" height="8.631" transform="translate(108.112 162.239)"/><rect class="g" width="4.094" height="8.626" transform="translate(85.574 179.014)"/><rect class="g" width="4.094" height="8.626" transform="translate(96.846 179.014)"/><rect class="g" width="4.094" height="8.626" transform="translate(108.112 179.014)"/><rect class="f" width="4.094" height="8.626" transform="translate(97.567 27.458)"/><rect class="e" width="4.094" height="8.631" transform="translate(122.817 51.216)"/><rect class="e" width="4.094" height="8.626" transform="translate(122.817 69.798)"/><rect class="e" width="4.094" height="8.626" transform="translate(122.817 88.375)"/><rect class="e" width="4.094" height="8.631" transform="translate(122.817 106.952)"/><rect class="e" width="4.094" height="8.626" transform="translate(122.817 125.529)"/><rect class="e" width="4.094" height="8.631" transform="translate(122.817 144.112)"/><rect class="e" width="4.094" height="8.626" transform="translate(122.817 162.689)"/><rect class="e" width="4.094" height="8.626" transform="translate(122.817 181.266)"/><path class="e" d="M490.3,300.585h-3.522v-3.5H490.3Zm-2.968-.555h2.413V297.64H487.33Z" transform="translate(-408.939 -297.085)"/><path class="e" d="M614.144,413.376h-3.395v-3.395h3.395Zm-2.84-.555h2.285v-2.285H611.3Z" transform="translate(-481.819 -363.453)"/><rect class="e" width="3.09" height="3.09" transform="translate(117.059 34.286)"/><path class="e" d="M596.668,363.708l-2.285,5.841,6.146-1.825-2.923-1.093Z" transform="translate(-472.198 -336.251)"/><rect class="h" width="53.839" height="143.014" transform="translate(28.434 58.848)"/><rect class="e" width="20.657" height="143.014" transform="translate(61.611 58.848)"/><rect class="e" width="4.094" height="8.626" transform="translate(36.095 69.782)"/><rect class="e" width="4.094" height="8.626" transform="translate(46.983 69.782)"/><rect class="e" width="4.094" height="8.631" transform="translate(36.095 86.217)"/><rect class="e" width="4.094" height="8.631" transform="translate(46.983 86.217)"/><rect class="e" width="4.094" height="8.626" transform="translate(36.095 102.653)"/><rect class="e" width="4.094" height="8.626" transform="translate(46.983 102.653)"/><rect class="e" width="4.094" height="8.626" transform="translate(36.095 119.089)"/><rect class="e" width="4.094" height="8.626" transform="translate(46.983 119.089)"/><rect class="e" width="4.094" height="8.631" transform="translate(36.095 135.525)"/><rect class="e" width="4.094" height="8.631" transform="translate(46.983 135.525)"/><rect class="e" width="4.094" height="8.631" transform="translate(36.095 151.955)"/><rect class="e" width="4.094" height="8.631" transform="translate(46.983 151.955)"/><rect class="e" width="4.094" height="8.626" transform="translate(36.095 168.391)"/><rect class="e" width="4.094" height="8.626" transform="translate(46.983 168.391)"/><rect class="e" width="4.094" height="8.631" transform="translate(36.095 184.827)"/><rect class="e" width="4.094" height="8.631" transform="translate(46.983 184.827)"/><rect class="h" width="4.094" height="8.626" transform="translate(69.898 70.137)"/><rect class="h" width="4.094" height="8.631" transform="translate(69.898 85.274)"/><rect class="h" width="4.094" height="8.631" transform="translate(69.898 102.221)"/><rect class="h" width="4.094" height="8.631" transform="translate(69.898 118.423)"/><rect class="h" width="4.094" height="8.631" transform="translate(69.898 134.621)"/><rect class="h" width="4.094" height="8.631" transform="translate(69.898 150.818)"/><rect class="h" width="4.094" height="8.626" transform="translate(69.898 167.021)"/><rect class="h" width="4.094" height="8.631" transform="translate(69.898 184.827)"/><rect class="e" width="61.211" height="1.67" transform="translate(23.741 57.95)"/><rect class="e" width="21.789" height="10.9" transform="translate(50.151 47.887)"/><rect class="h" width="11.46" height="10.062" transform="translate(50.151 47.887)"/><path class="e" d="M400.084,495.349c0,.078-7.428.144-16.586.144s-16.591-.066-16.591-.144,7.427-.144,16.591-.144S400.084,495.272,400.084,495.349Z" transform="translate(-338.473 -413.553)"/><path class="e" d="M400.084,535.364c0,.083-7.428.15-16.586.15s-16.591-.067-16.591-.15,7.427-.144,16.591-.144S400.084,535.286,400.084,535.364Z" transform="translate(-338.473 -437.076)"/><path class="e" d="M400.084,575.876c0,.078-7.428.144-16.586.144s-16.591-.067-16.591-.144,7.427-.144,16.591-.144S400.084,575.793,400.084,575.876Z" transform="translate(-338.473 -460.892)"/><path class="e" d="M400.084,616.079c0,.083-7.428.144-16.586.144s-16.591-.061-16.591-.144,7.427-.144,16.591-.144S400.084,615.99,400.084,616.079Z" transform="translate(-338.473 -484.526)"/><path class="e" d="M400.084,655.716c0,.078-7.428.144-16.586.144s-16.591-.066-16.591-.144,7.427-.144,16.591-.144S400.084,655.639,400.084,655.716Z" transform="translate(-338.473 -507.827)"/><path class="e" d="M400.084,694.277c0,.078-7.428.144-16.586.144s-16.591-.066-16.591-.144,7.427-.144,16.591-.144S400.084,694.194,400.084,694.277Z" transform="translate(-338.473 -530.496)"/><path class="e" d="M400.084,737c0,.078-7.428.144-16.586.144s-16.591-.061-16.591-.144,7.427-.144,16.591-.144S400.084,736.919,400.084,737Z" transform="translate(-338.473 -555.609)"/><path class="h" d="M468.781,443.154c0,.083-4.437.144-9.879.144s-9.879-.061-9.879-.144,4.438-.144,9.879-.144S468.781,443.077,468.781,443.154Z" transform="translate(-386.746 -382.869)"/><path class="h" d="M468.773,495.349c0,.078-4.437.144-9.879.144s-9.885-.066-9.885-.144,4.437-.144,9.879-.144S468.773,495.272,468.773,495.349Z" transform="translate(-386.738 -413.553)"/><path class="h" d="M468.781,535.364c0,.083-4.437.15-9.879.15s-9.879-.067-9.879-.15,4.438-.144,9.879-.144S468.781,535.286,468.781,535.364Z" transform="translate(-386.746 -437.076)"/><path class="h" d="M468.781,575.391c0,.078-4.437.144-9.879.144s-9.879-.067-9.879-.144,4.438-.144,9.879-.144S468.781,575.308,468.781,575.391Z" transform="translate(-386.746 -460.607)"/><path class="h" d="M468.264,616.079c0,.083-4.437.144-9.873.144s-9.879-.061-9.879-.144,4.438-.144,9.879-.144S468.264,615.99,468.264,616.079Z" transform="translate(-386.445 -484.526)"/><path class="h" d="M468.264,655.716c0,.078-4.437.144-9.873.144s-9.879-.066-9.879-.144,4.438-.144,9.879-.144S468.264,655.639,468.264,655.716Z" transform="translate(-386.445 -507.827)"/><path class="h" d="M468.264,695.354c0,.077-4.437.144-9.873.144s-9.879-.067-9.879-.144,4.438-.144,9.879-.144S468.264,695.271,468.264,695.354Z" transform="translate(-386.445 -531.129)"/><path class="h" d="M468.264,737c0,.078-4.437.144-9.873.144s-9.879-.067-9.879-.144,4.438-.144,9.879-.144S468.264,736.919,468.264,737Z" transform="translate(-386.445 -555.609)"/><rect class="i" width="39.9" height="52.63" transform="translate(13.119 149.359)"/><rect class="g" width="18.71" height="52.63" transform="translate(34.314 149.359)"/><rect class="j" width="18.71" height="52.63" transform="translate(34.314 149.359)"/><rect class="j" width="3.589" height="8.714" transform="translate(21.489 156.487)"/><rect class="j" width="3.589" height="8.714" transform="translate(21.489 190.601)"/><path class="j" d="M350.941,706.041c0,.077-4.748.144-10.595.144s-10.6-.066-10.6-.144,4.743-.144,10.6-.144S350.941,705.952,350.941,706.041Z" transform="translate(-316.627 -537.411)"/><rect class="j" width="3.589" height="8.714" transform="translate(21.489 173.672)"/><path class="j" d="M350.941,747.764c0,.078-4.748.144-10.595.144s-10.6-.066-10.6-.144,4.743-.144,10.6-.144S350.941,747.67,350.941,747.764Z" transform="translate(-316.627 -561.939)"/><rect class="k" width="3.589" height="8.714" transform="translate(38.286 156.487)"/><rect class="k" width="3.589" height="8.714" transform="translate(46.068 156.487)"/><rect class="k" width="3.589" height="8.714" transform="translate(38.286 173.023)"/><rect class="k" width="3.589" height="8.714" transform="translate(46.068 173.023)"/><rect class="k" width="3.589" height="8.714" transform="translate(38.286 189.564)"/><rect class="k" width="3.589" height="8.714" transform="translate(46.068 189.564)"/><rect class="g" width="45.902" height="1.897" transform="translate(10.123 147.529)"/><rect class="j" width="45.902" height="1.897" transform="translate(10.123 147.529)"/><path class="g" d="M370.411,659.875c0,.083-8.919.144-19.919.144s-19.925-.061-19.925-.144,8.92-.144,19.919-.144S370.411,659.8,370.411,659.875Z" transform="translate(-317.11 -510.272)"/><path d="M370.411,659.875c0,.083-8.919.144-19.919.144s-19.925-.061-19.925-.144,8.92-.144,19.919-.144S370.411,659.8,370.411,659.875Z" transform="translate(-317.11 -510.272)"/><rect class="k" width="41.969" height="76.172" transform="translate(74.735 125.468)"/><rect class="g" width="11.854" height="76.172" transform="translate(104.85 125.468)"/><rect class="l" width="11.854" height="76.172" transform="translate(104.85 125.468)"/><rect class="j" width="4.094" height="8.626" transform="translate(82.762 135.298)"/><rect class="j" width="4.094" height="8.626" transform="translate(94.139 135.298)"/><rect class="j" width="4.094" height="8.631" transform="translate(82.762 151.234)"/><rect class="j" width="4.094" height="8.631" transform="translate(94.139 151.234)"/><rect class="j" width="4.094" height="8.631" transform="translate(82.762 167.171)"/><rect class="j" width="4.094" height="8.631" transform="translate(94.139 167.171)"/><rect class="j" width="4.094" height="8.626" transform="translate(82.762 184.605)"/><rect class="j" width="4.094" height="8.626" transform="translate(94.139 185.027)"/><path class="j" d="M509.991,736.351c0,.078-6.656.144-14.871.144s-14.872-.067-14.872-.144,6.656-.144,14.872-.144S509.991,736.268,509.991,736.351Z" transform="translate(-405.102 -555.23)"/><path class="j" d="M509.991,694.8c0,.083-6.656.144-14.871.144s-14.872-.061-14.872-.144,6.656-.144,14.872-.144S509.991,694.725,509.991,694.8Z" transform="translate(-405.102 -530.804)"/><path class="j" d="M509.991,654.9c0,.078-6.656.144-14.871.144s-14.872-.066-14.872-.144,6.656-.144,14.872-.144S509.991,654.79,509.991,654.9Z" transform="translate(-405.102 -507.344)"/><rect class="e" width="4.094" height="8.631" transform="translate(108.933 135.536)"/><rect class="e" width="4.094" height="8.626" transform="translate(108.933 151.95)"/><rect class="e" width="4.094" height="8.631" transform="translate(108.933 168.369)"/><rect class="e" width="4.094" height="8.631" transform="translate(108.933 184.788)"/><rect class="m" width="48.342" height="126.539" transform="translate(99.591 74.907)"/><rect class="f" width="24.174" height="126.539" transform="translate(124.326 75.473)"/><rect class="h" width="17.074" height="15.044" transform="translate(105.111 59.869)"/><rect class="e" width="4.066" height="15.044" transform="translate(118.113 59.869)"/><rect class="k" width="4.094" height="8.631" transform="translate(133.517 81.469)"/><path class="k" d="M622.89,523.708c0,.078-5.414.144-12.087.144s-12.087-.067-12.087-.144,5.414-.144,12.087-.144S622.89,523.63,622.89,523.708Z" transform="translate(-474.746 -430.224)"/><rect class="k" width="4.094" height="8.626" transform="translate(133.517 98.598)"/><path class="k" d="M622.89,565.27c0,.083-5.414.144-12.087.144s-12.087-.061-12.087-.144,5.414-.144,12.087-.144S622.89,565.193,622.89,565.27Z" transform="translate(-474.746 -454.657)"/><rect class="k" width="4.094" height="8.631" transform="translate(133.517 116.249)"/><path class="k" d="M622.89,608.121c0,.078-5.414.144-12.087.144s-12.087-.066-12.087-.144,5.42-.127,12.076-.127S622.89,608.039,622.89,608.121Z" transform="translate(-474.746 -479.858)"/><rect class="k" width="4.094" height="8.631" transform="translate(133.517 133.894)"/><path class="k" d="M622.89,650.858c0,.083-5.414.144-12.087.144s-12.087-.061-12.087-.144,5.414-.144,12.087-.144S622.89,650.8,622.89,650.858Z" transform="translate(-474.746 -504.971)"/><rect class="k" width="4.094" height="8.626" transform="translate(133.517 151.04)"/><path class="k" d="M622.89,692.581c0,.078-5.414.144-12.087.144s-12.087-.066-12.087-.144,5.414-.144,12.087-.144S622.89,692.47,622.89,692.581Z" transform="translate(-474.746 -529.499)"/><rect class="k" width="4.094" height="8.626" transform="translate(133.517 168.252)"/><rect class="k" width="4.094" height="8.631" transform="translate(133.517 185.687)"/><path class="k" d="M622.89,734.305c0,.078-5.414.144-12.087.144s-12.087-.067-12.087-.144,5.414-.144,12.087-.144S622.89,734.211,622.89,734.305Z" transform="translate(-474.746 -554.027)"/><rect class="e" width="53.79" height="0.876" transform="translate(95.564 74.031)"/><rect class="f" width="4.094" height="8.631" transform="translate(109.132 81.469)"/><path class="f" d="M563.737,523.708c0,.078-5.414.144-12.087.144s-12.087-.067-12.087-.144,5.408-.144,12.087-.144S563.737,523.63,563.737,523.708Z" transform="translate(-439.971 -430.224)"/><rect class="f" width="4.094" height="8.626" transform="translate(109.132 98.859)"/><path class="f" d="M563.737,565.9c0,.083-5.414.144-12.087.144s-12.087-.061-12.087-.144,5.408-.144,12.087-.144S563.737,565.825,563.737,565.9Z" transform="translate(-439.971 -455.029)"/><rect class="f" width="4.094" height="8.626" transform="translate(109.132 116.255)"/><path class="f" d="M563.737,608.127c0,.077-5.414.144-12.087.144s-12.087-.067-12.087-.144,5.392-.133,12.087-.133S563.737,608.044,563.737,608.127Z" transform="translate(-439.971 -479.858)"/><rect class="f" width="4.094" height="8.631" transform="translate(109.132 133.645)"/><path class="f" d="M563.737,650.306c0,.083-5.414.144-12.087.144s-12.087-.061-12.087-.144,5.408-.144,12.087-.144S563.737,650.228,563.737,650.306Z" transform="translate(-439.971 -504.647)"/><rect class="f" width="4.094" height="8.626" transform="translate(109.132 151.04)"/><path class="f" d="M563.737,692.581c0,.078-5.414.144-12.087.144s-12.087-.066-12.087-.144,5.408-.144,12.087-.144S563.737,692.47,563.737,692.581Z" transform="translate(-439.971 -529.499)"/><rect class="f" width="4.094" height="8.631" transform="translate(109.132 168.43)"/><path class="f" d="M563.737,734.678c0,.083-5.414.144-12.087.144s-12.087-.061-12.087-.144,5.392-.167,12.087-.167S563.737,734.6,563.737,734.678Z" transform="translate(-439.971 -554.233)"/><rect class="f" width="4.094" height="8.631" transform="translate(109.132 185.825)"/><rect class="e" width="39.5" height="52.098" transform="translate(141.804 149.77)"/><rect class="h" width="18.522" height="52.098" transform="translate(162.783 149.77)"/><rect class="h" width="3.55" height="8.631" transform="translate(150.086 156.82)"/><rect class="h" width="3.55" height="8.631" transform="translate(150.086 190.59)"/><path class="h" d="M662.967,706.539c0,.083-4.7.144-10.49.144s-10.489-.061-10.489-.144,4.693-.144,10.489-.144S662.967,706.461,662.967,706.539Z" transform="translate(-500.184 -537.704)"/><rect class="h" width="3.55" height="8.626" transform="translate(150.086 173.833)"/><path class="h" d="M662.967,747.764c0,.083-4.7.144-10.49.144s-10.489-.061-10.489-.144,4.693-.144,10.489-.144S662.967,747.709,662.967,747.764Z" transform="translate(-500.184 -561.939)"/><rect class="e" width="3.55" height="8.631" transform="translate(166.716 156.82)"/><rect class="e" width="3.55" height="8.631" transform="translate(174.421 156.82)"/><rect class="e" width="3.55" height="8.631" transform="translate(166.716 173.195)"/><rect class="e" width="3.55" height="8.631" transform="translate(174.421 173.195)"/><rect class="e" width="3.55" height="8.626" transform="translate(166.716 189.564)"/><rect class="e" width="3.55" height="8.626" transform="translate(174.421 189.564)"/><rect class="e" width="45.436" height="1.88" transform="translate(138.831 147.956)"/><path class="a" d="M682.243,660.858c0,.083-8.831.144-19.714.144s-19.719-.061-19.719-.144,8.825-.144,19.719-.144S682.243,660.78,682.243,660.858Z" transform="translate(-500.666 -510.85)"/><path class="e" d="M301.3,497.968h-3.389v-3.395H301.3Zm-2.835-.555h2.28v-2.285h-2.28Z" transform="translate(-297.915 -413.181)"/><rect class="e" width="2.835" height="2.835" transform="translate(0.277 124.459)"/></g><g transform="translate(247.53 498.803)"><path class="e" d="M482.836,786.675c0,.083-47.621.15-106.342.15s-106.359-.066-106.359-.15,47.61-.144,106.359-.144S482.836,786.6,482.836,786.675Z" transform="translate(-270.135 -786.531)"/></g></g></svg>