<svg xmlns="http://www.w3.org/2000/svg" width="20.06" height="20.06" viewBox="0 0 20.06 20.06"><defs><style>.a{fill:#6b6977;}</style></defs><path class="a" d="M19.859,18.767l-2.541-2.541,2.541-2.541a.771.771,0,1,0-1.09-1.09l-2.541,2.541L13.687,12.6a.771.771,0,0,0-1.09,1.09l2.541,2.541L12.6,18.767a.745.745,0,0,0,0,1.09.765.765,0,0,0,1.09,0l2.541-2.541,2.541,2.541a.774.774,0,0,0,1.09,0A.765.765,0,0,0,19.859,18.767Z" transform="translate(-6.198 -6.196)"/><path class="a" d="M13.4,4.725A8.676,8.676,0,1,1,7.266,7.266,8.622,8.622,0,0,1,13.4,4.725m0-1.35A10.03,10.03,0,1,0,23.435,13.4,10.028,10.028,0,0,0,13.4,3.375Z" transform="translate(-3.375 -3.375)"/></svg>