<svg xmlns="http://www.w3.org/2000/svg" width="75" height="76" viewBox="0 0 75 76"><defs><style>.a{fill:#0457be;stroke:#fff;stroke-width:3px;}.b{fill:#253237;}.c{fill:#ffbca0;}.d{fill:#ed9774;}.e{stroke:none;}.f{fill:none;}</style></defs><g transform="translate(-22 -98)"><g class="a" transform="translate(22 99)"><circle class="e" cx="37.5" cy="37.5" r="37.5"/><circle class="f" cx="37.5" cy="37.5" r="36"/></g><g transform="translate(-434.222 -603.18)"><g transform="translate(-1.179)"><path class="b" d="M487.236,707.626c.627-3.013,2.777-4.607,5.625-5.769a9.584,9.584,0,0,1,8.813.9c1.717,1.152,3.085,2.89,5.08,3.445,3.26.926,6.87-1.687,10.016-.432a4.371,4.371,0,0,1-1.584,8.433c2.129.638,2.951,3.579,1.841,5.5a5.8,5.8,0,0,1-5.769,2.5,12.25,12.25,0,0,1-5.934-2.879c-1.738-1.388-3.311-2.982-5.142-4.227a9.606,9.606,0,0,0-6.263-1.892c-2.992.339-5.43,2.756-6.612,5.522a22.318,22.318,0,0,0-1.3,8.875,36.944,36.944,0,0,1-.6,8.988c-.082.35-.216.73-.545.854-.483.185-.925-.308-1.193-.74a44.239,44.239,0,0,1-6.016-16.125c-.535-3.3-.627-6.458,1.028-9.368s6.17-5.234,8.535-3.6" transform="translate(0.015 0)"/><path class="c" d="M482.112,721.774l.432,33.772c.072,5.738,1.357,14.161,10.428,13.626h0c7.836-1.028,9.739-8.546,9.656-13.9v-4.926s8.587-.915,9.091-9.43c.247-4.113.072-12.639-.185-20.341a15.877,15.877,0,0,0-15.127-15.333h-.823C486.658,705.289,481.824,712.9,482.112,721.774Z" transform="translate(0.151 0.115)"/><path class="d" d="M502.344,749.08a19.833,19.833,0,0,1-10.962-3.682s2.334,6.252,10.88,5.892Z" transform="translate(0.414 1.254)"/><path class="b" d="M507.419,725.18a1.224,1.224,0,0,1-1.234,1.172,1.172,1.172,0,0,1-1.2-1.141v-.021a1.234,1.234,0,0,1,1.234-1.172,1.172,1.172,0,0,1,1.2,1.141Z" transform="translate(0.8 0.648)"/><path class="b" d="M508.845,724.177c-.164.144-1.028-.576-2.355-.638s-2.3.545-2.437.38.1-.35.535-.638a3.381,3.381,0,0,1,1.954-.5,3.194,3.194,0,0,1,1.872.71C508.794,723.807,508.969,724.084,508.845,724.177Z" transform="translate(0.772 0.613)"/><path class="b" d="M495.169,724.76a1.2,1.2,0,0,1-1.224,1.172,1.152,1.152,0,0,1-1.2-1.1c0-.017,0-.035,0-.052a1.214,1.214,0,0,1,1.224-1.172,1.151,1.151,0,0,1,1.2,1.1C495.169,724.725,495.169,724.742,495.169,724.76Z" transform="translate(0.452 0.636)"/><path class="b" d="M496.315,723.817c-.154.144-1.028-.576-2.355-.638s-2.3.555-2.437.38.1-.35.535-.638a3.38,3.38,0,0,1,1.954-.5,3.238,3.238,0,0,1,1.872.71C496.274,723.457,496.4,723.745,496.315,723.817Z" transform="translate(0.417 0.602)"/><path class="b" d="M500.354,733.74a9.251,9.251,0,0,1,2.149-.288c.329,0,.658-.062.72-.288a1.7,1.7,0,0,0-.175-1.028l-.864-2.591a44.875,44.875,0,0,1-1.913-6.767,43.677,43.677,0,0,1,2.448,6.6l.823,2.6a1.925,1.925,0,0,1,.113,1.327.865.865,0,0,1-.576.463,2.974,2.974,0,0,1-.566.051A9.093,9.093,0,0,1,500.354,733.74Z" transform="translate(0.666 0.613)"/><path class="b" d="M5.338.007c-.185-.113-.854,1.152-2.406,1.471S.124.953.022,1.128s.165.4.72.71a3.519,3.519,0,0,0,2.4.37A3.082,3.082,0,0,0,5.071.933C5.4.429,5.421.048,5.338.007Z" transform="matrix(0.799, 0.602, -0.602, 0.799, 496.974, 735.962)"/><path class="b" d="M496.838,721.769c-.154.35-1.45.113-2.993.226s-2.807.473-2.993.144c-.093-.154.144-.483.658-.8a5.067,5.067,0,0,1,2.252-.668,5.132,5.132,0,0,1,2.314.38C496.632,721.306,496.9,721.6,496.838,721.769Z" transform="translate(0.398 0.552)"/><path class="b" d="M508.535,720.469c-.237.288-1.131-.072-2.211-.134s-2.057.1-2.211-.216c-.082-.154.072-.442.494-.71a3.209,3.209,0,0,1,3.558.278C508.535,720.016,508.648,720.325,508.535,720.469Z" transform="translate(0.774 0.505)"/><path class="c" d="M482.654,727.5c-.144-.072-5.769-2.005-5.862,3.826s5.79,4.72,5.8,4.556S482.654,727.5,482.654,727.5Z" transform="translate(0 0.736)"/><path class="d" d="M480.8,733.586a1.574,1.574,0,0,1-.278.144,1.025,1.025,0,0,1-.761,0,2.551,2.551,0,0,1-1.131-2.273,3.5,3.5,0,0,1,.309-1.46,1.182,1.182,0,0,1,.782-.761.514.514,0,0,1,.6.288c.072.165,0,.278.062.288s.134-.093.082-.339a.631.631,0,0,0-.216-.37.8.8,0,0,0-.566-.154,1.4,1.4,0,0,0-1.028.884,3.355,3.355,0,0,0-.38,1.625,2.655,2.655,0,0,0,1.44,2.54,1.111,1.111,0,0,0,.936-.134C480.792,733.73,480.823,733.6,480.8,733.586Z" transform="translate(0.042 0.788)"/><path class="b" d="M513.412,718.933a12.341,12.341,0,0,1-10.818-2.982c-1.985-1.861-3.466-4.463-6.026-5.389a6.973,6.973,0,0,0-5.327.473,13.428,13.428,0,0,0-4.185,3.5c1.44,4.412.1,9.194-1.234,13.636a2.28,2.28,0,0,1-.74,1.306,1.841,1.841,0,0,1-2.293-.617,7.2,7.2,0,0,1-1.4-3.877,24,24,0,0,1,.5-9.451,16.453,16.453,0,0,1,4.874-8.021,15.525,15.525,0,0,1,11.034-3.579,19.021,19.021,0,0,1,10.788,4.463,11.149,11.149,0,0,1,3.383,4.288" transform="translate(0.123 0.077)"/></g></g></g></svg>