<svg xmlns="http://www.w3.org/2000/svg" width="52.496" height="34.78" viewBox="0 0 52.496 34.78"><defs><style>.a{fill:#7eaddc;}.b{fill:#2e5ba8;}.c{fill:none;}.d{fill:#231f56;}</style></defs><rect class="a" width="5.383" height="5.333" transform="translate(46.641 21.804)"/><rect class="b" width="2.666" height="5.333" transform="translate(49.357 21.804)"/><path class="a" d="M6.8,51.408H35.242l-8.888-6.666a8.889,8.889,0,0,0-10.666,0Z" transform="translate(-4.55 -26.049)"/><rect class="c" width="2.722" height="2.722" transform="translate(47.996 23.109)"/><path class="d" d="M54.773,33.846H49.913v-.417a2.25,2.25,0,1,0-4.5,0v.417H40.552A2.256,2.256,0,0,0,38.3,36.1v1.3H33.6l-8.762-6.572A9.266,9.266,0,0,0,20.073,29l-.38-.033V24.124H22.1a6.5,6.5,0,0,0,6.482-6.482V12.986a.473.473,0,0,0-.472-.472H25.23a6.494,6.494,0,0,0-5.646,3.305l-.363.645-.363-.645a6.493,6.493,0,0,0-5.646-3.305H10.333a.473.473,0,0,0-.472.472v4.656a6.5,6.5,0,0,0,6.482,6.482h2.406v4.839l-.38.033a9.271,9.271,0,0,0-4.763,1.832L4.843,37.4H3.222a.472.472,0,0,0-.472.472v1.405A2.256,2.256,0,0,0,4.257,41.4l16.015,5.6c.59.207.717.009.8-.23a.388.388,0,0,0,.013-.324.818.818,0,0,0-.494-.333L4.569,40.511a1.308,1.308,0,0,1-.874-1.232v-.933H34.747v1.3a6.668,6.668,0,0,1-6.576,6.637c-.166.006-.368.094-.368.473s.2.465.371.471a7.615,7.615,0,0,0,7.083-5.055l.1-.277h5.2a2.257,2.257,0,0,0,2.25-2.25v-1.3h2.611v2.194a2.25,2.25,0,1,0,4.5,0v-.417h4.861a.472.472,0,0,0,.472-.472V34.318A.473.473,0,0,0,54.773,33.846ZM19.693,19a5.553,5.553,0,0,1,5.537-5.537h2.407v4.184A5.552,5.552,0,0,1,22.1,23.18H20.241L22.3,20.653a.472.472,0,1,0-.723-.608l-1.888,2.327Zm-5.279-.374,3.8,4.559h-1.87A5.552,5.552,0,0,1,10.8,17.643V13.458h2.406A5.552,5.552,0,0,1,18.749,19v3.352L15.14,18.016a.472.472,0,0,0-.725.6Zm-8,18.78,7.755-5.816a8.406,8.406,0,0,1,10.1,0L32.025,37.4Zm39,0H42.33a.472.472,0,0,0-.472.472v1.778a1.308,1.308,0,0,1-1.3,1.305H35.592l.052-.463a7.758,7.758,0,0,0,.048-.843v-1.3h3.083a.473.473,0,0,0,.472-.473V36.1a1.308,1.308,0,0,1,1.3-1.305h4.861Zm3.555,3.139a1.305,1.305,0,1,1-2.611,0V33.429a1.305,1.305,0,1,1,2.611,0Zm5.333-1.36H49.913V34.79H54.3Z" transform="translate(-2.75 -12.514)"/><path class="d" d="M40.013,23.7a.484.484,0,1,0-.483-.484A.485.485,0,0,0,40.013,23.7Z" transform="translate(-19.098 -17.054)"/><path class="d" d="M41.071,73.384a.483.483,0,1,0,.484.483A.484.484,0,0,0,41.071,73.384Z" transform="translate(-19.569 -39.57)"/><circle class="d" cx="0.889" cy="0.889" r="0.889" transform="translate(15.582 20.026)"/><circle class="d" cx="0.889" cy="0.889" r="0.889" transform="translate(11.138 21.804)"/><circle class="d" cx="0.889" cy="0.889" r="0.889" transform="translate(20.026 21.804)"/></svg>