<svg xmlns="http://www.w3.org/2000/svg" width="147.261" height="123.153" viewBox="0 0 147.261 123.153"><defs><style>.a{fill:#f4f4f4;}.b{fill:#dfdfdf;}.c{fill:#fff;}.d{fill:#253237;}.e{fill:#feba3d;}.f{fill:#2aad9c;}.g{opacity:0.4;}.h{fill:#ffbca0;}.i{fill:#ed9774;}.j{fill:#0457be;}.k{fill:#ff7063;}.l{fill:#445a63;}.m{fill:#b3d88a;}.n{fill:#455a64;}.o{fill:#263238;}.p{fill:#0d0a2b;}</style></defs><g transform="translate(-324.264 -593.183)"><g transform="translate(328.754 610.886)"><rect class="a" width="121.263" height="80.842" rx="11.09" transform="translate(21.507 0)"/><rect class="b" width="116.983" height="76.671" rx="11.09" transform="translate(23.483 1.973)"/><rect class="c" width="112.465" height="42.356" transform="translate(25.244 25.575)"/><rect class="a" width="121.263" height="80.842" rx="11.09" transform="translate(0 24.608)"/><rect class="b" width="116.983" height="76.671" rx="11.09" transform="translate(1.976 26.584)"/><rect class="c" width="112.465" height="42.356" transform="translate(3.737 50.183)"/></g><g transform="translate(422.804 595.176)"><path class="d" d="M653.918,629.942s.1.029.3.093.479.154.864.251a10.094,10.094,0,0,0,3.435.244,13.676,13.676,0,0,0,2.449-.472,15.4,15.4,0,0,0,2.773-1.06,17.087,17.087,0,0,0,5.582-4.534,5.213,5.213,0,0,0,.99-1.771,2.708,2.708,0,0,0-.157-2.05,2.249,2.249,0,0,0-1.8-1.086,4.1,4.1,0,0,0-2.227.431,8.275,8.275,0,0,1-1.125.437,2.19,2.19,0,0,1-1.237,0,1.322,1.322,0,0,1-.926-.848,1.547,1.547,0,0,1,.212-1.26,2.345,2.345,0,0,1,.964-.852,9.382,9.382,0,0,1,1.208-.479,16.545,16.545,0,0,0,2.394-1.07,16.27,16.27,0,0,0,2.249-1.478,5.376,5.376,0,0,0,.983-.929,1.927,1.927,0,0,0,.476-1.218,1.285,1.285,0,0,0-.7-1.051,3.054,3.054,0,0,0-1.33-.321,7.908,7.908,0,0,1-1.436-.151,1.608,1.608,0,0,1-1.147-.919.875.875,0,0,1,.074-.771,1.888,1.888,0,0,1,.553-.521q.6-.415,1.173-.877a19.184,19.184,0,0,0,2.15-2.037,9.605,9.605,0,0,0,1.722-2.433,2.958,2.958,0,0,0,.26-1.446,2.182,2.182,0,0,0-.6-1.324,2.913,2.913,0,0,0-2.731-.807,4.788,4.788,0,0,0-2.484,1.536c-1.334,1.488-1.954,3.419-3.04,5.039a8,8,0,0,1-.906,1.144,2.542,2.542,0,0,1-.565.476.762.762,0,0,1-.758.051.947.947,0,0,1-.418-.643,2.662,2.662,0,0,1-.029-.726,1.921,1.921,0,0,0-.045-.672,1.229,1.229,0,0,0-.341-.556,1.679,1.679,0,0,0-1.215-.437,1.905,1.905,0,0,0-1.173.546,2.982,2.982,0,0,0-.7,1.1,4.76,4.76,0,0,0-.283,1.285c-.077.877-.042,1.761-.055,2.625s0,1.726,0,2.571a7.479,7.479,0,0,1-.209,2.5,1.468,1.468,0,0,1-.839.913,1.781,1.781,0,0,1-1.218-.045,4.824,4.824,0,0,1-1.912-1.359,5.1,5.1,0,0,1-.643-.945,9.723,9.723,0,0,0-.543-.964,1.536,1.536,0,0,0-.807-.643,1.424,1.424,0,0,0-1,.1,2.048,2.048,0,0,0-.771.643,2.28,2.28,0,0,0-.379.913,14.445,14.445,0,0,0-.116,1.957c-.026.643-.029,1.26-.019,1.867a23.636,23.636,0,0,0,.305,3.4,16.849,16.849,0,0,0,.717,2.892c.135.437.321.832.479,1.221a7.557,7.557,0,0,0,.54,1.057,11.031,11.031,0,0,0,2.14,2.7,4.208,4.208,0,0,0,.4.341l.3.238.235.2s-.083-.058-.244-.183l-.3-.231a4.016,4.016,0,0,1-.4-.321,10.909,10.909,0,0,1-2.172-2.693c-.2-.321-.363-.684-.553-1.06a7.772,7.772,0,0,1-.485-1.224,16.642,16.642,0,0,1-.733-2.892,23.331,23.331,0,0,1-.321-3.416v-1.873a14.412,14.412,0,0,1,.112-1.973,2.466,2.466,0,0,1,.4-.964,2.169,2.169,0,0,1,.819-.681,1.552,1.552,0,0,1,1.083-.109,1.672,1.672,0,0,1,.877.684,10.292,10.292,0,0,1,.553.964,4.946,4.946,0,0,0,.643.919,4.737,4.737,0,0,0,1.854,1.318,1.674,1.674,0,0,0,1.125.042,1.324,1.324,0,0,0,.752-.829,8.09,8.09,0,0,0,.2-2.449c.019-.842,0-1.7,0-2.571s-.026-1.745.051-2.641a4.937,4.937,0,0,1,.292-1.33,3.123,3.123,0,0,1,.758-1.154,2.068,2.068,0,0,1,1.285-.588,1.844,1.844,0,0,1,1.311.479,1.361,1.361,0,0,1,.385.643,2.121,2.121,0,0,1,.051.723,2.565,2.565,0,0,0,.026.685.8.8,0,0,0,.337.527.607.607,0,0,0,.6-.051,2.47,2.47,0,0,0,.527-.463,7.937,7.937,0,0,0,.887-1.121c1.07-1.607,1.687-3.535,3.049-5.061a4.962,4.962,0,0,1,2.571-1.587,3.078,3.078,0,0,1,2.892.858,2.34,2.34,0,0,1,.643,1.42,3.134,3.134,0,0,1-.273,1.526,9.638,9.638,0,0,1-1.755,2.481,19.758,19.758,0,0,1-2.169,2.053c-.382.321-.781.6-1.182.884a1.794,1.794,0,0,0-.508.472.708.708,0,0,0-.058.643,1.454,1.454,0,0,0,1.044.8,7.842,7.842,0,0,0,1.407.148,3.214,3.214,0,0,1,1.4.354,1.6,1.6,0,0,1,.549.485,1.352,1.352,0,0,1,.231.7,2.048,2.048,0,0,1-.511,1.321,5.475,5.475,0,0,1-1.006.964,16.794,16.794,0,0,1-2.269,1.488,16.47,16.47,0,0,1-2.416,1.077,9.238,9.238,0,0,0-1.192.469,2.2,2.2,0,0,0-.919.8,1.408,1.408,0,0,0-.2,1.141,1.183,1.183,0,0,0,.829.755,2.07,2.07,0,0,0,1.16,0,7.729,7.729,0,0,0,1.105-.427,4.284,4.284,0,0,1,2.3-.437,2.736,2.736,0,0,1,1.1.35,2.133,2.133,0,0,1,.794.81,2.825,2.825,0,0,1,.164,2.147,5.314,5.314,0,0,1-1.015,1.809,17.143,17.143,0,0,1-5.633,4.544A15.466,15.466,0,0,1,661,630.147a13.486,13.486,0,0,1-2.468.46,10,10,0,0,1-3.448-.276,8.17,8.17,0,0,1-.861-.267C654.015,629.984,653.918,629.942,653.918,629.942Z" transform="translate(-643.01 -599.386)"/><path class="d" d="M681.845,601.935a.781.781,0,0,1-.084.084c-.058.051-.151.129-.257.225-.228.2-.562.485-.983.871a32.151,32.151,0,0,0-3.313,3.512c-.643.791-1.321,1.684-2.024,2.657s-1.446,2.024-2.188,3.156a38.273,38.273,0,0,0-2.153,3.65c-.337.643-.643,1.337-.948,2.034s-.617,1.407-.932,2.124a78.906,78.906,0,0,0-3.136,8.236,38.227,38.227,0,0,0-1.5,7.034,28,28,0,0,0-.125,4.852c.039.572.077,1.015.116,1.318.016.141.026.257.035.341a.92.92,0,0,1,0,.119.493.493,0,0,1-.026-.116,2.865,2.865,0,0,0-.051-.341c-.048-.3-.1-.742-.148-1.317a26.989,26.989,0,0,1,.077-4.865,37.642,37.642,0,0,1,1.472-7.069,76.622,76.622,0,0,1,3.13-8.258l.932-2.124c.321-.694.614-1.385.964-2.04a38.781,38.781,0,0,1,2.169-3.663c.749-1.131,1.5-2.175,2.2-3.149s1.391-1.867,2.044-2.654a30.434,30.434,0,0,1,3.361-3.483c.427-.379.768-.662,1-.852l.27-.212Z" transform="translate(-653.407 -601.116)"/><path class="d" d="M682.414,625.758a1.862,1.862,0,0,1-.08-.37c-.042-.238-.093-.582-.151-1.012-.113-.855-.228-2.044-.354-3.352s-.254-2.5-.382-3.348c-.061-.424-.116-.771-.154-1.009a1.848,1.848,0,0,1-.045-.373,1.688,1.688,0,0,1,.106.363c.058.231.129.575.206,1,.154.848.305,2.034.427,3.348s.225,2.461.321,3.355c.039.4.074.746.1,1.019A1.813,1.813,0,0,1,682.414,625.758Z" transform="translate(-665.075 -610.862)"/><path class="d" d="M695.941,639.6a2.206,2.206,0,0,1-.44.051c-.286.022-.694.051-1.2.106-1.012.1-2.407.286-3.933.559s-2.892.585-3.888.839c-.495.122-.893.231-1.17.305a2.313,2.313,0,0,1-.431.1,2.248,2.248,0,0,1,.414-.164c.27-.09.665-.219,1.157-.354a39.545,39.545,0,0,1,3.888-.887,38.961,38.961,0,0,1,3.953-.514c.508-.039.922-.055,1.208-.058A2.807,2.807,0,0,1,695.941,639.6Z" transform="translate(-667.539 -626.667)"/><path class="d" d="M658.071,653.893a.758.758,0,0,1-.074-.135c-.048-.109-.109-.241-.183-.4-.161-.35-.379-.861-.643-1.5-.524-1.269-1.186-3.046-1.893-5.016s-1.356-3.753-1.848-5.032l-.591-1.513c-.064-.164-.116-.3-.157-.415a.457.457,0,0,1-.045-.148.623.623,0,0,1,.074.138c.051.106.112.238.186.4.157.35.376.861.643,1.5.521,1.285,1.186,3.046,1.893,5.019s1.353,3.75,1.848,5.029l.588,1.523.157.415A.446.446,0,0,1,658.071,653.893Z" transform="translate(-645.659 -626.769)"/><path class="d" d="M684.268,669.505l-.145.058-.431.138-1.575.495c-1.33.418-3.162,1.015-5.186,1.681s-3.856,1.247-5.2,1.636c-.668.2-1.212.35-1.591.447l-.434.109a.486.486,0,0,1-.157.029.587.587,0,0,1,.148-.058l.427-.141,1.575-.495c1.333-.418,3.165-1.015,5.186-1.677s3.856-1.247,5.2-1.639c.668-.2,1.215-.347,1.607-.447l.437-.109A.5.5,0,0,1,684.268,669.505Z" transform="translate(-657.135 -646.973)"/><path class="e" d="M638.382,633.465a3.617,3.617,0,0,1,2.5,1.311,6.328,6.328,0,0,1,1.26,2.59,11.22,11.22,0,0,1-.379,5.745c-1.954-.717-3.143-2.818-3.683-3.92-.848-1.745-1.324-5.411.3-5.726" transform="translate(-635.253 -622.514)"/><path class="e" d="M658.9,659.471a3.083,3.083,0,0,1-.119-3.088,4.091,4.091,0,0,1,2.481-1.957,1.716,1.716,0,0,1,1.446.08,1.314,1.314,0,0,1,.5,1.24,2.653,2.653,0,0,1-.575,1.26,5.28,5.28,0,0,1-3.731,2.465" transform="translate(-649.586 -636.657)"/><path class="d" d="M659.308,670.117a2.123,2.123,0,0,1-.087-.376c-.048-.27-.112-.617-.19-1.035a10.808,10.808,0,0,1-.186-3.464,6.589,6.589,0,0,1,1.314-3.213,4.331,4.331,0,0,1,.749-.745,2.744,2.744,0,0,1,.235-.167.337.337,0,0,1,.093-.042,7.186,7.186,0,0,0-1,1.019,6.823,6.823,0,0,0-1.253,3.159,11.622,11.622,0,0,0,.145,3.432c.068.437.119.794.151,1.038A2.113,2.113,0,0,1,659.308,670.117Z" transform="translate(-649.83 -641.252)"/><path class="d" d="M642.557,642.075a.863.863,0,0,1,.077.148c.051.112.116.257.2.437.167.382.408.938.7,1.626.578,1.375,1.35,3.287,2.156,5.418s1.491,4.078,1.967,5.492c.238.707.427,1.285.553,1.681l.138.459a.818.818,0,0,1,.042.164,1.26,1.26,0,0,1-.068-.154c-.042-.119-.1-.267-.164-.453-.145-.408-.347-.964-.591-1.665-.5-1.407-1.2-3.345-2.005-5.463s-1.562-4.046-2.118-5.431c-.273-.681-.495-1.237-.659-1.639l-.174-.45A.661.661,0,0,1,642.557,642.075Z" transform="translate(-638.818 -628.357)"/><path class="e" d="M638.107,669.216a7.213,7.213,0,0,0-5.559-3.535c-.582-.048-1.285.045-1.539.562a1.517,1.517,0,0,0,.466,1.571,6.154,6.154,0,0,0,6.652,1.542" transform="translate(-630.92 -644.371)"/><path class="d" d="M638.687,670.576a1.813,1.813,0,0,1,.363,0,3.562,3.562,0,0,1,.421.055c.164.032.353.051.556.109a6.625,6.625,0,0,1,.659.186,7.145,7.145,0,0,1,.733.289,7.387,7.387,0,0,1,2.815,2.211,6.712,6.712,0,0,1,.447.643,6.324,6.324,0,0,1,.321.6,5.292,5.292,0,0,1,.225.517,3.023,3.023,0,0,1,.141.4,1.677,1.677,0,0,1,.09.353c-.029,0-.164-.492-.543-1.231a6.339,6.339,0,0,0-.341-.582,7.014,7.014,0,0,0-.45-.643,8.094,8.094,0,0,0-1.256-1.25,8.348,8.348,0,0,0-1.51-.926,6.714,6.714,0,0,0-.72-.292,5.766,5.766,0,0,0-.643-.2C639.2,670.637,638.684,670.6,638.687,670.576Z" transform="translate(-636.191 -647.694)"/></g><g transform="translate(341.177 622.454)"><rect class="a" width="121.263" height="80.842" rx="11.09"/><rect class="f" width="116.983" height="76.671" rx="11.09" transform="translate(1.976 1.976)"/><rect class="c" width="112.465" height="42.356" transform="translate(3.737 25.578)"/></g><g transform="translate(423.151 655.85)"><path class="e" d="M644.7,795.992l1.677.185,4.142-4.671.347-3.305s2.582.108,1.834,4.41-.314,3.233-.314,3.233,5.44.585,5.846,1.106c.291.375-.124,5.817-.366,8.741a3.2,3.2,0,0,1-2.581,2.964,2.343,2.343,0,0,1-.6.019c-1.361-.145-8.181-1.964-8.181-1.964l-2.886-.3Z" transform="translate(-639.883 -788.201)"/><path class="e" d="M632.152,808.091,632,819.544l2.843.293,1.149-11.117Z" transform="translate(-631.999 -801.7)"/></g><g transform="translate(324.264 593.183)"><path class="f" d="M390.012,655.648c-3.789-.181-6.275-1-6.556-2.4-.627-2.93,8.33-7.311,19.987-9.8,6-1.273,9.569-4.682,13.4-3.317,1.614.58,8.546,2.7,8.846,4.117s-1.647,3.179-5.058,4.9" transform="translate(-364.415 -624.829)"/><g class="g" transform="translate(20.888 17.902)"><path d="M395.1,661.474c-3.352-.166-5.555-.884-5.8-2.137-.56-2.595,7.373-6.474,17.708-8.679s18.749-2.733,19.715.709c.34,1.192-1.465,2.768-4.488,4.3" transform="translate(-389.267 -648.895)"/></g><g transform="translate(0 8.804)"><path class="h" d="M340.409,743.545,334.946,753.6l.45-24.406a8.551,8.551,0,0,1,1.514-4.319,8.925,8.925,0,0,1,1.314-1.571,9.671,9.671,0,0,1,2.089-1.462c.729-.289.752-1.3.074-1.478s-2.709.569-4.476,2.381-1.369-2.1-1.247-3.535.286-5.864-.125-6.237c-.6-.549-1.317,0-1.4,1.44s-.643,5.7-1.4,5.623-.026-7.349-.026-7.349.4-1.536-.46-1.658c-1.562-.222-1.751,7.548-1.751,8.29,0,.514-.819.456-.79-.1s.88-7.243-.707-7.481c-1.218-.183-.215,6.391-1.16,7.712s-.251-5.077-1.424-5.206c-.434-.048-.768-.023-.643,3.686.071,2,.964,4.978.8,8.827l-.039,1h0c-.922,7.2-5.077,44.981,9.226,43.956,0,0,10.852-1.507,16.883-21.257Z" transform="translate(-324.264 -681.959)"/><path class="i" d="M336.417,752.587c0,.035.241.064.6.251A2.248,2.248,0,0,1,338.072,754l.112.286.125-.28a3.6,3.6,0,0,1,.742-1.07,4.229,4.229,0,0,1,2.2-1.186c.643-.132,1.06-.058,1.067-.109a2.008,2.008,0,0,0-1.1-.084,4.037,4.037,0,0,0-2.371,1.186,3.718,3.718,0,0,0-.778,1.16h.238a2.249,2.249,0,0,0-1.231-1.211A1.078,1.078,0,0,0,336.417,752.587Z" transform="translate(-332.512 -709.443)"/><path class="h" d="M559.156,826.845l6.077,11.446,5.549,10.675H558.234l-7.776-16.025" transform="translate(-477.773 -760.564)"/><path class="j" d="M381.809,793.056c1.2-4.071.411-4.714-.874-8.756l-2.763-8.676-6.048,8.933h0l-12.857-10.334h0l4.264-9.618a113.57,113.57,0,0,1,7.475-13.12l13.412-3.651,16.465-3.143s6.018-1.2,14.556,1.9c2.224,2.018,15.12,23.52,15.12,23.52l-12.41,8.7-3.043-5.19-.842,7.053c-.662,3.856-.62,8.763.842,12.381" transform="translate(-348.019 -704.654)"/><path class="d" d="M471.422,635.845c-.4,4.762,5.987,8.143,5.418,12.886-.157,1.317-.842,2.751-.145,3.882.835,1.359,2.87,1.073,4.354,1.661a4.555,4.555,0,0,1,2.487,4.868,8.38,8.38,0,0,1-3.017,4.92,14.78,14.78,0,0,1-8.355,3.589,7.6,7.6,0,0,1-4.21-.643,4.05,4.05,0,0,1-2.3-3.4" transform="translate(-420.222 -630.94)"/><path class="h" d="M438.37,670.833c-.848-4.065-1.668-8.355-1.668-8.355s5.048-1.979,4.685-9.033c-.344-6.729-4.6-21.53-4.6-21.53h0a20.037,20.037,0,0,0-20.758,9.64h0l7.432,32.886a7.235,7.235,0,0,0,8.911,5.164h0A7.671,7.671,0,0,0,438.37,670.833Z" transform="translate(-386.54 -628.065)"/><path class="d" d="M478.649,669.023a.9.9,0,0,1-.659,1.06.855.855,0,0,1-1.063-.575l-.007-.023a.9.9,0,0,1,.643-1.064.858.858,0,0,1,1.075.562C478.642,669,478.646,669.01,478.649,669.023Z" transform="translate(-427.851 -653.022)"/><path class="d" d="M478.082,666.352c-.084.138-.852-.212-1.793,0s-1.533.819-1.658.726c-.061-.042,0-.27.26-.553a2.444,2.444,0,0,1,1.285-.723,2.351,2.351,0,0,1,1.456.151C477.973,666.1,478.114,666.291,478.082,666.352Z" transform="translate(-426.297 -651.235)"/><path class="d" d="M448.753,675.907a.9.9,0,0,1-.643,1.064.858.858,0,0,1-1.065-.582l-.005-.019a.894.894,0,0,1,.643-1.06.855.855,0,0,1,1.064.575Z" transform="translate(-407.573 -657.698)"/><path class="d" d="M448.082,673.194c-.084.135-.852-.215-1.793,0s-1.53.82-1.658.726c-.061-.039,0-.27.26-.553a2.482,2.482,0,0,1,1.285-.723,2.379,2.379,0,0,1,1.459.151C447.989,672.947,448.134,673.13,448.082,673.194Z" transform="translate(-405.938 -655.879)"/><path class="d" d="M466.546,677.029a6.217,6.217,0,0,1,1.472-.6c.235-.077.453-.17.459-.344a1.265,1.265,0,0,0-.321-.678l-1.1-1.681a31.707,31.707,0,0,1-2.612-4.454,32.1,32.1,0,0,1,2.963,4.232l1.073,1.7a1.442,1.442,0,0,1,.321.919.615.615,0,0,1-.321.434,1.674,1.674,0,0,1-.4.145A6.2,6.2,0,0,1,466.546,677.029Z" transform="translate(-419.395 -653.624)"/><path class="i" d="M460.057,726.609a17.762,17.762,0,0,1-9.64-.5s3.213,4.219,9.907,2.134Z" transform="translate(-409.879 -692.196)"/><path class="k" d="M465.529,699.9a1.731,1.731,0,0,0-1.655-.305,1.566,1.566,0,0,0-.948.8,1,1,0,0,0,.161,1.138,1.163,1.163,0,0,0,1.285.051,3.661,3.661,0,0,0,1.054-.964,1.077,1.077,0,0,0,.209-.321.321.321,0,0,0-.077-.353" transform="translate(-418.294 -674.142)"/><path class="d" d="M462.642,697.262c.154-.042.373.98,1.4,1.523a5.127,5.127,0,0,0,2.13.321c.029.061-.2.251-.659.36a2.6,2.6,0,0,1-1.767-.225,2.251,2.251,0,0,1-1.105-1.285C462.52,697.548,462.571,697.272,462.642,697.262Z" transform="translate(-418.126 -672.621)"/><path class="h" d="M421.4,684.275a4.146,4.146,0,0,0-2.169.607,2.892,2.892,0,0,0-1.285,1.8,3.028,3.028,0,0,0,.443,2.185,5.121,5.121,0,0,0,1.632,1.571,3.459,3.459,0,0,0,1.51.6,1.658,1.658,0,0,0,1.472-.556" transform="translate(-387.811 -663.807)"/><path class="i" d="M425.081,691.229c.09,0-.135.517-.839.479a1.452,1.452,0,0,1-.964-.546,3.31,3.31,0,0,1-.62-1.134,1.946,1.946,0,0,1,.035-1.35,1.285,1.285,0,0,1,.839-.768c.684-.161,1,.27.922.3a1.373,1.373,0,0,0-.787.08,1.261,1.261,0,0,0-.463,1.571c.251.716.675,1.359,1.112,1.446S425.036,691.177,425.081,691.229Z" transform="translate(-390.97 -666.25)"/><path class="d" d="M409.644,622.924a5.07,5.07,0,0,1-1.041,5.987c-1.632,1.468-4,1.677-6.105,2.291s-4.367,2.166-4.271,4.361c.058,1.33,1,2.609.662,3.895-.4,1.507-2.32,2.15-2.863,3.609-.871,2.346,2.317,4.457,2.175,6.954-.084,1.481-1.337,2.69-1.475,4.177-.2,2.1,1.864,4.335.717,6.105-.88,1.362-2.931,1.166-4.434.575s-3.149-1.433-4.656-.842a13.182,13.182,0,0,0-2.352,1.71,4.5,4.5,0,0,1-6.944-4.573,12.6,12.6,0,0,1,1.648-3.535,5.013,5.013,0,0,0,.749-3.737,8.718,8.718,0,0,0-1.642-2.494,2.963,2.963,0,0,1-.678-2.783c.675-1.623,3.262-1.481,4.2-2.966,1.285-2.041-1.7-4.637-.932-6.925.868-2.59,5.463-2.127,6.337-4.717.321-.942,0-1.98.087-2.969.228-2.25,2.6-3.712,4.843-4.1s4.579-.1,6.777-.678c1.2-.321,2.327-.89,3.509-1.285a5.568,5.568,0,0,1,3.663-.157,2.752,2.752,0,0,1,1.87,2.892" transform="translate(-361.394 -620.58)"/><path class="d" d="M467.215,629.389a8.517,8.517,0,0,0,6.227,4.177,20.658,20.658,0,0,0-.6-5.112,8.241,8.241,0,0,0-2.69-4.309,5.1,5.1,0,0,0-4.859-.861" transform="translate(-419.978 -622.218)"/><path class="d" d="M474.744,662.88c.074.138.717-.068,1.517-.157s1.469-.045,1.507-.2-.643-.459-1.571-.35S474.67,662.771,474.744,662.88Z" transform="translate(-426.385 -648.794)"/><path class="d" d="M444.66,666.613c.029-.026.026-.08,0-.167v.145a6.558,6.558,0,0,1,1.452-.534c.887-.193,1.639.019,1.7-.125.026-.067-.135-.219-.463-.321a2.514,2.514,0,0,0-1.346-.077,2.2,2.2,0,0,0-1.478.922l-.058.116.048.026A.144.144,0,0,0,444.66,666.613Z" transform="translate(-405.841 -651.049)"/><path class="k" d="M419.125,666.346a14.484,14.484,0,0,1-2.179-.138,13.817,13.817,0,0,1-2.159-.305,28.293,28.293,0,0,1,4.338.443Z" transform="translate(-385.698 -651.338)"/><path class="l" d="M439.11,639.985a.823.823,0,0,1-.064.2,1.829,1.829,0,0,1-.321.508,3.112,3.112,0,0,1-1.992.88,5.977,5.977,0,0,1-1.526-.026c-.543-.067-1.118-.167-1.722-.212a4.258,4.258,0,0,0-1.861.2,3.745,3.745,0,0,0-1.555,1.25c-.44.546-.81,1.131-1.244,1.648a5.227,5.227,0,0,1-.71.7,3.66,3.66,0,0,1-.829.482,8.611,8.611,0,0,1-1.7.44,9.033,9.033,0,0,0-1.462.35,3.051,3.051,0,0,0-1.668,1.285,2.1,2.1,0,0,0-.215.758.814.814,0,0,1,0-.209,1.731,1.731,0,0,1,.164-.578,3.056,3.056,0,0,1,1.684-1.385,9.088,9.088,0,0,1,1.478-.376,8.3,8.3,0,0,0,1.661-.447,3.775,3.775,0,0,0,1.475-1.144c.424-.5.79-1.093,1.237-1.649a3.939,3.939,0,0,1,1.629-1.285,4.407,4.407,0,0,1,1.928-.2,16.758,16.758,0,0,0,3.213.276,3.094,3.094,0,0,0,1.97-.8A2.569,2.569,0,0,0,439.11,639.985Z" transform="translate(-390.754 -633.749)"/><path class="l" d="M390.462,697.467a2.248,2.248,0,0,0,.286-.08,1.127,1.127,0,0,0,.572-.594,1.736,1.736,0,0,0,.026-1.308c-.154-.5-.453-1.035-.681-1.671a8.537,8.537,0,0,1-.459-4.669,6.247,6.247,0,0,1,1.176-2.535,5.4,5.4,0,0,1,1.08-1.028,6.38,6.38,0,0,1,1.356-.7,4.243,4.243,0,0,0,1.285-.733,1.606,1.606,0,0,0,.495-1.263c-.055-.935-.566-1.793-.549-2.719a2.81,2.81,0,0,1,.341-1.285,4.733,4.733,0,0,1,.733-1,16.687,16.687,0,0,1,1.652-1.456,5.19,5.19,0,0,0,1.838-2.5,2.52,2.52,0,0,0,0-1.144.223.223,0,0,1,.026.074c0,.048.035.122.055.218a2.247,2.247,0,0,1-.029.868,3.5,3.5,0,0,1-.582,1.244,7.443,7.443,0,0,1-1.24,1.327,17.306,17.306,0,0,0-1.626,1.459,4.677,4.677,0,0,0-.707.964,2.683,2.683,0,0,0-.321,1.208,4.484,4.484,0,0,0,.247,1.311,6.125,6.125,0,0,1,.321,1.4,1.761,1.761,0,0,1-.543,1.391,4.351,4.351,0,0,1-1.334.765,6.387,6.387,0,0,0-1.321.717,5.233,5.233,0,0,0-1.048,1,6.11,6.11,0,0,0-1.154,2.465,8.537,8.537,0,0,0,.418,4.6c.219.643.511,1.166.662,1.687a2.4,2.4,0,0,1,.1.746,1.565,1.565,0,0,1-.157.617,1.154,1.154,0,0,1-.62.6A.645.645,0,0,1,390.462,697.467Z" transform="translate(-368.922 -656.01)"/><path class="m" d="M417.933,675.65a7.613,7.613,0,0,1-3.274-.177c0-.045.736.051,1.636.1S417.93,675.6,417.933,675.65Z" transform="translate(-385.612 -657.826)"/><path class="m" d="M417.933,678.156a7.61,7.61,0,0,1-3.274-.177c0-.045.736.051,1.636.1S417.93,678.1,417.933,678.156Z" transform="translate(-385.612 -659.527)"/></g><path class="m" d="M420.561,613.717l-14.015-.415-18.693,8.433s-1.747-11.882-.428-14.7,10.55-8.128,10.55-8.128l6.989-1.487c8.785-.245,13.47,4.43,13.861,4.982s6.055,12.317,6.055,12.317Z" transform="translate(-366.795 -596.053)"/><path class="f" d="M416.489,594.823a1.669,1.669,0,0,0-1.063.816h0a1.67,1.67,0,0,0-.182.964l.108.54,2.839-1.3,3.64,18.474,8.84-1.464s-3.632-14.808-4.23-16.953a6.24,6.24,0,0,0-.866-1.87,2.012,2.012,0,0,0-2.067-.8l-1.94.387Z" transform="translate(-386.002 -593.183)"/><path class="n" d="M400.013,652.98l-1.026-4.851,15.431-8.361,14.608,1.343,1.834,4.12A55.77,55.77,0,0,0,400.013,652.98Z" transform="translate(-374.976 -624.799)"/><path class="f" d="M411.828,634.347l-12.416,2.7a13.73,13.73,0,0,0-7.758,5.645h0l-5.454,5.087s10.116-5.48,19.526-7.586c5.31-1.076,15.9-1.8,18.58-.562.877.4.98-.054,1.8.2l-6.685-3.1-.692-.441C416.238,634.732,414.686,633.679,411.828,634.347Z" transform="translate(-366.297 -620.981)"/><path class="o" d="M423.794,648.252a19.188,19.188,0,0,0-4.13-.352,48.76,48.76,0,0,0-13.517,2.209c-2.592.746-5.095,1.381-7.269,2.172a61.492,61.492,0,0,0-5.691,2.4c-.792.379-1.49.765-2.093,1.115a4.014,4.014,0,0,0-1.335,1.117,1.67,1.67,0,0,0-.22,1.414.667.667,0,0,1-.177-.373,1.67,1.67,0,0,1,.222-1.151,3.988,3.988,0,0,1,1.363-1.233,23.8,23.8,0,0,1,2.075-1.205,56.276,56.276,0,0,1,5.693-2.522c2.212-.815,4.7-1.482,7.292-2.228a44.8,44.8,0,0,1,13.664-2.069,17.3,17.3,0,0,1,4.177.5,5.908,5.908,0,0,1,1.075.4,2.48,2.48,0,0,1,.345.2C425.246,648.7,424.762,648.45,423.794,648.252Z" transform="translate(-368.428 -630.079)"/><path class="o" d="M426.766,637.116l-1.17-.448-4.328-1.605h0l-1.119-1a6.5,6.5,0,0,0-1.3-1.025,4.36,4.36,0,0,0-1.71-.51,7.368,7.368,0,0,0-1.871.177c-2.5.43-5.222,1.041-8.063,1.735-2.606.63-5.154,1.3-7.452,1.936a5.654,5.654,0,0,0-1.659.646,4.377,4.377,0,0,0-1.22,1.179c-.572.931-1.036,1.807-1.5,2.613h0l-4.125,3.256-1.114.9a2.384,2.384,0,0,0-.368.329l.413-.278,1.149-.851,4.242-3.186h0c.472-.792.955-1.7,1.511-2.582a4.119,4.119,0,0,1,1.155-1.081,5.386,5.386,0,0,1,1.582-.6c2.294-.619,4.81-1.273,7.449-1.91,2.827-.717,5.568-1.314,8.033-1.754a7.383,7.383,0,0,1,1.8-.189,4.167,4.167,0,0,1,1.609.471,7.148,7.148,0,0,1,1.266.973l1.134.991h0l4.361,1.514,1.193.392a2.083,2.083,0,0,0,.424.12C427.093,637.306,426.954,637.248,426.766,637.116Z" transform="translate(-368.719 -619.88)"/><path class="o" d="M420.959,614.29a14.976,14.976,0,0,0-.277-1.647c-.217-1.429-.6-3.369-1.033-5.522l-.605-3.037-.264-1.326c0-.026-.011-.051-.019-.076a.835.835,0,0,0-1.037-.565c-.678.314-1.187.577-1.551.76a2.814,2.814,0,0,0-.542.312,2.182,2.182,0,0,0,.6-.2l1.572-.654.05-.012a.576.576,0,0,1,.669.464l.264,1.326.605,3.037,1.1,5.509c.183.662.3,1.235.375,1.627a2.254,2.254,0,0,0,.18.6A2.414,2.414,0,0,0,420.959,614.29Z" transform="translate(-386.272 -599.223)"/><path class="o" d="M451.424,607.885c-.3-1.208-.658-2.66-1.084-4.371s-.828-3.256-1.135-4.37a11.262,11.262,0,0,0-.56-1.786,11.2,11.2,0,0,0,.366,1.834c.255,1.149.622,2.693,1.046,4.4s.828,3.256,1.176,4.362a8.775,8.775,0,0,0,.655,1.75A13.018,13.018,0,0,0,451.424,607.885Z" transform="translate(-408.677 -596.016)"/></g><path class="p" d="M444.107,753.483l-9.5-7.391-.277,4.439s7.773,10.078,7.907,10.2,2.556-4.91,2.556-4.91l2.97,4.112,3.78-11.748a39.878,39.878,0,0,1-1.117-4.276Z" transform="translate(-74.697 -102.288)"/><g transform="translate(395.354 633.404)"><path class="c" d="M550.493,719.44V720.7h-1.712v5.2h-1.574v-5.2H545.5V719.44Z" transform="translate(-545.495 -719.09)"/><path class="c" d="M568.089,720.556a2.291,2.291,0,0,1,.534,1.606v3h-1.565v-2.789a1.127,1.127,0,0,0-.267-.8,1.047,1.047,0,0,0-1.436,0,1.129,1.129,0,0,0-.267.8v2.789h-1.574v-6.812h1.574v2.366a1.686,1.686,0,0,1,.653-.543,2.1,2.1,0,0,1,.93-.2A1.826,1.826,0,0,1,568.089,720.556Z" transform="translate(-557.724 -718.351)"/><path class="c" d="M582.146,724.578a2.227,2.227,0,0,1,.815-.921,2.127,2.127,0,0,1,1.15-.322,1.979,1.979,0,0,1,.953.221,1.633,1.633,0,0,1,.63.58v-.727h1.574v5.136h-1.574v-.727a1.7,1.7,0,0,1-.64.58,1.977,1.977,0,0,1-.953.221,2.085,2.085,0,0,1-1.141-.327,2.253,2.253,0,0,1-.815-.929,3.386,3.386,0,0,1,0-2.785Zm3.221.469a1.106,1.106,0,0,0-1.592,0,1.269,1.269,0,0,0-.327.925,1.3,1.3,0,0,0,.327.934,1.1,1.1,0,0,0,1.592,0,1.487,1.487,0,0,0,0-1.86Z" transform="translate(-570.165 -721.734)"/><path class="c" d="M606.841,723.978a2.278,2.278,0,0,1,.539,1.606v3h-1.565V725.8a1.127,1.127,0,0,0-.267-.8,1.047,1.047,0,0,0-1.436,0,1.127,1.127,0,0,0-.267.8v2.789h-1.574v-5.136h1.574v.681a1.656,1.656,0,0,1,.644-.539,2.046,2.046,0,0,1,.911-.2A1.864,1.864,0,0,1,606.841,723.978Z" transform="translate(-584.027 -721.773)"/><path class="c" d="M624.716,725.163l-1.564-2.154v2.154h-1.574v-6.812h1.574v3.765l1.556-2.09h1.942l-2.136,2.577,2.154,2.559Z" transform="translate(-597.129 -718.351)"/><path class="c" d="M649.825,719.44l-2.237,4.326V725.9h-1.574v-2.135l-2.237-4.326h1.786l1.252,2.706,1.243-2.706Z" transform="translate(-612.195 -719.09)"/><path class="c" d="M664.893,728.3a2.359,2.359,0,0,1-.948-.921,2.98,2.98,0,0,1,0-2.794,2.372,2.372,0,0,1,.957-.925,3.041,3.041,0,0,1,2.725,0,2.376,2.376,0,0,1,.957.925,2.727,2.727,0,0,1,.35,1.395,2.7,2.7,0,0,1-.355,1.395,2.4,2.4,0,0,1-.966.925,2.888,2.888,0,0,1-1.367.322A2.832,2.832,0,0,1,664.893,728.3Zm2.126-1.372a1.316,1.316,0,0,0,.318-.948,1.342,1.342,0,0,0-.308-.948,1.047,1.047,0,0,0-1.524,0,1.648,1.648,0,0,0,0,1.9.967.967,0,0,0,.75.331A1.025,1.025,0,0,0,667.02,726.925Z" transform="translate(-625.648 -721.734)"/><path class="c" d="M687.8,723.565V728.7h-1.574V728a1.731,1.731,0,0,1-.649.548,1.984,1.984,0,0,1-.907.207,2.033,2.033,0,0,1-1.04-.262,1.771,1.771,0,0,1-.7-.76,2.586,2.586,0,0,1-.248-1.169v-3h1.565v2.789a1.127,1.127,0,0,0,.267.8.937.937,0,0,0,.718.285.949.949,0,0,0,.728-.285,1.127,1.127,0,0,0,.267-.8v-2.789Z" transform="translate(-638.596 -721.89)"/><path class="c" d="M703.336,725.246a.789.789,0,0,1-.263-.6.814.814,0,0,1,.263-.617.942.942,0,0,1,.676-.248.929.929,0,0,1,.667.248.814.814,0,0,1,.263.617.789.789,0,0,1-.263.6.939.939,0,0,1-.667.244A.952.952,0,0,1,703.336,725.246Zm1.5-6.522-.184,4.409h-1.335l-.184-4.409Z" transform="translate(-652.437 -718.604)"/></g></g></svg>